<?xml version="1.0" encoding="UTF-8"?>
<svg version="1.1" xmlns="http://www.w3.org/2000/svg" width="1476" height="824">
<path d="M0 0 C487.08 0 974.16 0 1476 0 C1476 271.92 1476 543.84 1476 824 C988.92 824 501.84 824 0 824 C0 552.08 0 280.16 0 0 Z " fill="#FEFEFE" transform="translate(0,0)"/>
<path d="M0 0 C8.7734466 7.10705708 17.41675862 14.41230409 25.33520508 22.46801758 C27.76873168 24.91721787 30.10449892 27.06302562 32.92724609 29.0703125 C36.12349321 28.73648225 37.82047736 27.56589384 40.09912109 25.375 C40.68177734 24.82328125 41.26443359 24.2715625 41.86474609 23.703125 C42.46287109 23.12304688 43.06099609 22.54296875 43.67724609 21.9453125 C66.9867627 -0.33280957 92.77650278 -21.09558734 126.36474609 -21.1171875 C127.363125 -21.12943359 128.36150391 -21.14167969 129.39013672 -21.15429688 C144.99569772 -21.18507707 157.78700887 -14.80552036 168.92724609 -3.9296875 C181.31104519 10.57364644 186.34160187 28.46799856 187.92724609 47.0703125 C188.05486328 48.43542969 188.05486328 48.43542969 188.18505859 49.828125 C189.08782313 69.0269175 181.79583023 90.78222812 168.92724609 105.0703125 C162.98177585 110.75219047 156.51417373 114.93512622 148.92724609 118.0703125 C148.00943359 118.46347656 147.09162109 118.85664063 146.14599609 119.26171875 C128.73740976 125.70020365 110.42764135 122.56219688 93.88037109 115.34375 C73.15681465 105.80261958 52.09805561 89.60102493 37.31396484 72.16796875 C36.85634766 71.80574219 36.39873047 71.44351563 35.92724609 71.0703125 C31.28688565 71.72024786 28.93928809 74.81135263 25.86474609 78.0703125 C20.21549036 83.88222236 14.33313247 89.09192169 7.92724609 94.0703125 C6.89857422 94.89273438 5.86990234 95.71515625 4.81005859 96.5625 C-16.53174907 113.4980908 -39.43343939 124.09216389 -67.07275391 122.0703125 C-71.68858164 121.24352657 -75.7734594 119.92456605 -80.07275391 118.0703125 C-80.98927734 117.69261719 -81.90580078 117.31492187 -82.85009766 116.92578125 C-98.29405243 109.59156456 -109.05736321 94.55655028 -114.94775391 78.9453125 C-115.68902715 76.66408778 -116.40050776 74.37282359 -117.07275391 72.0703125 C-117.31896484 71.22726562 -117.56517578 70.38421875 -117.81884766 69.515625 C-123.06366983 46.87246168 -118.16136671 24.50464124 -106.24072266 5.0859375 C-98.19404769 -6.90233672 -87.09986912 -15.82741796 -73.07275391 -19.9296875 C-46.50570605 -24.85192581 -20.91974664 -16.52276792 0 0 Z " fill="#1A2246" transform="translate(402.07275390625,366.9296875)"/>
<path d="M0 0 C9.6286927 8.62085852 13.83923603 22.23907981 14.6640625 34.80078125 C14.92701857 48.73745271 12.06577698 62.51744001 2.54296875 73.3046875 C-3.0391333 78.53654001 -8.60509653 81.21355608 -16.26171875 81.609375 C-34.31025703 80.89621087 -51.18162853 69.45640957 -64.57421875 58.171875 C-65.1583252 57.68251465 -65.74243164 57.1931543 -66.34423828 56.68896484 C-73.53258878 50.64521945 -80.59187215 44.45229258 -87.57421875 38.171875 C-83.64876821 33.36756564 -79.53241106 29.0843792 -74.82421875 25.046875 C-73.86128906 24.21990112 -73.86128906 24.21990112 -72.87890625 23.3762207 C-24.58066815 -17.45637738 -24.58066815 -17.45637738 0 0 Z " fill="#FDFCFD" transform="translate(546.57421875,379.828125)"/>
<path d="M0 0 C16.26348038 8.61753246 30.87715741 21.35645299 44.3046875 33.828125 C46.04199923 35.50324717 46.04199923 35.50324717 48.125 36.4375 C44.34716947 45.7646861 31.8100906 53.32975053 24.125 59.4375 C23.4959375 59.94667969 22.866875 60.45585937 22.21875 60.98046875 C12.30391628 68.74273988 1.31468073 76.01164202 -10.875 79.4375 C-11.60203125 79.65921875 -12.3290625 79.8809375 -13.078125 80.109375 C-21.72811991 82.55250333 -28.00523433 81.39852824 -35.875 77.4375 C-45.66995328 70.90753115 -50.62525144 60.24280729 -53.46484375 49.12890625 C-55.86068373 33.40763245 -52.89195134 19.99462096 -44.875 6.4375 C-33.49452101 -8.73647199 -15.72950919 -7.39349766 0 0 Z " fill="#FDFDFD" transform="translate(365.875,379.5625)"/>
<path d="M0 0 C6.8475 -0.103125 13.695 -0.20625 20.75 -0.3125 C22.8856543 -0.35802002 25.02130859 -0.40354004 27.22167969 -0.45043945 C39.85404261 -0.60776707 49.20842552 0.31105679 59.5 8.3125 C65.49130201 14.16650134 67.23233413 18.96000325 67.5625 27.375 C67.3278987 35.23414365 65.67162899 41.15503231 60.1796875 46.90625 C57.89723856 48.93084906 55.73119942 50.63440029 53 52 C53.61636634 55.2308582 54.72321618 57.31920533 56.65234375 59.96875 C57.44608398 61.07283203 57.44608398 61.07283203 58.25585938 62.19921875 C59.08827148 63.33810547 59.08827148 63.33810547 59.9375 64.5 C61.03245287 66.00860173 62.12498923 67.51896098 63.21484375 69.03125 C63.70073975 69.69705078 64.18663574 70.36285156 64.68725586 71.04882812 C65.98034052 72.97077951 67.01321809 74.90684392 68 77 C52.08892644 79.22590148 52.08892644 79.22590148 47.06884766 75.60839844 C42.58357002 70.86020426 39.28865607 65.05700115 36.76171875 59.0625 C34.67878648 56.62394515 34.07277779 56.61890249 30.98828125 56.29296875 C29.43061123 56.22882399 27.8714431 56.19961879 26.3125 56.1875 C23.569375 56.125625 20.82625 56.06375 18 56 C18 62.93 18 69.86 18 77 C12.06 77 6.12 77 0 77 C0 51.59 0 26.18 0 0 Z " fill="#1B2347" transform="translate(876,267)"/>
<path d="M0 0 C7.1775 -0.12375 14.355 -0.2475 21.75 -0.375 C25.11010254 -0.45693604 25.11010254 -0.45693604 28.53808594 -0.54052734 C41.77574054 -0.72869436 50.83638037 0.32519716 61.0625 9.4375 C66.77107104 15.85616159 67.50759362 21.35373735 67.28515625 29.77734375 C66.61952156 37.29992753 64.3321153 42.6678847 59 48 C54.7 51 54.7 51 52 51 C55.48356742 57.84701183 59.70106321 63.8500431 64.34106445 69.94555664 C68 74.79766413 68 74.79766413 68 77 C63.45155061 77.3003693 58.93387645 77.50638551 54.375 77.41796875 C53.24964844 77.39899536 53.24964844 77.39899536 52.1015625 77.37963867 C49.53566835 76.91612039 48.28727689 75.99299241 46.375 74.25 C45.53962523 72.85865908 44.7543612 71.43687847 44 70 C42.57060786 67.91109547 41.1325763 65.8280853 39.6875 63.75 C37.71436147 60.78841302 36.12529332 58.37587995 35 55 C29.39 55 23.78 55 18 55 C18 62.26 18 69.52 18 77 C12.06 77 6.12 77 0 77 C0 51.59 0 26.18 0 0 Z " fill="#1A2246" transform="translate(810,489)"/>
<path d="M0 0 C1.65 0 3.3 0 5 0 C5 269.94 5 539.88 5 818 C3.35 818 1.7 818 0 818 C0 548.06 0 278.12 0 0 Z " fill="#D0D3D5" transform="translate(0,6)"/>
<path d="M0 0 C16 0 16 0 19.58203125 2.60546875 C20.7578125 4.31640625 20.7578125 4.31640625 21.8125 6.1875 C22.68031755 7.48526971 23.55149903 8.78079535 24.42578125 10.07421875 C24.84811035 10.73341309 25.27043945 11.39260742 25.70556641 12.07177734 C27.73216305 15.09064953 30.10306486 17.77284677 32.5 20.5 C39.30324447 28.42428224 45.73421309 36.64561746 52 45 C52.33 30.15 52.66 15.3 53 0 C58.94 0 64.88 0 71 0 C71 25.41 71 50.82 71 77 C56 77 56 77 51.75 73.375 C50.46688095 71.60690075 49.22029571 69.81202865 48 68 C46.71849439 66.32256116 45.4079713 64.67070199 44.09375 63.01879883 C42.67319642 61.23200877 41.27202428 59.4311047 39.87109375 57.62890625 C36.27997954 53.04959195 32.50034683 48.63920636 28.703125 44.23046875 C25.36353936 40.23937435 22.19494995 36.10779279 19 32 C18.67 46.85 18.34 61.7 18 77 C12.06 77 6.12 77 0 77 C0 51.59 0 26.18 0 0 Z " fill="#1C2448" transform="translate(957,267)"/>
<path d="M0 0 C5.94 0 11.88 0 18 0 C23.78620288 12.49170902 29.48779037 25.00218317 34.85839844 37.67871094 C37.04063277 42.8125697 39.30240061 47.89477527 41.6875 52.9375 C44.00456016 57.84771862 46.26957493 62.77249572 48.4375 67.75 C48.93121094 68.87921875 49.42492188 70.0084375 49.93359375 71.171875 C51 74 51 74 51 77 C45.06 77 39.12 77 33 77 C32.01 74.73125 31.02 72.4625 30 70.125 C29.68675781 69.41230957 29.37351562 68.69961914 29.05078125 67.96533203 C27 63.22222222 27 63.22222222 27 61 C15.12 61.33 3.24 61.66 -9 62 C-11.31 66.95 -13.62 71.9 -16 77 C-21.94 77 -27.88 77 -34 77 C-31.59043789 68.88261587 -28.0655116 61.33368926 -24.50601196 53.67453003 C-22.69446993 49.77593511 -20.8977327 45.87053953 -19.1015625 41.96484375 C-18.7464711 41.19328445 -18.3913797 40.42172516 -18.02552795 39.62678528 C-14.62874756 32.22760156 -11.36802247 24.7738666 -8.18334961 17.28076172 C-5.66997176 11.40073059 -2.90273995 5.69872415 0 0 Z " fill="#1A2347" transform="translate(1071,267)"/>
<path d="M0 0 C5.94 0 11.88 0 18 0 C18 9.9 18 19.8 18 30 C29.22 30 40.44 30 52 30 C52 20.1 52 10.2 52 0 C57.94 0 63.88 0 70 0 C70 25.74 70 51.48 70 78 C64.06 78 58.12 78 52 78 C52 67.11 52 56.22 52 45 C40.45 45 28.9 45 17 45 C17 55.56 17 66.12 17 77 C11.39 77 5.78 77 0 77 C0 51.59 0 26.18 0 0 Z " fill="#1D2448" transform="translate(892,378)"/>
<path d="M0 0 C19.47 0 38.94 0 59 0 C59 4.62 59 9.24 59 14 C45.47 14 31.94 14 18 14 C18 19.61 18 25.22 18 31 C29.88 31 41.76 31 54 31 C54 35.62 54 40.24 54 45 C42.12 45 30.24 45 18 45 C18 50.61 18 56.22 18 62 C32.19 62 46.38 62 61 62 C61 66.95 61 71.9 61 77 C40.87 77 20.74 77 0 77 C0 51.59 0 26.18 0 0 Z " fill="#1E264A" transform="translate(1089,489)"/>
<path d="M0 0 C19.47 0 38.94 0 59 0 C59 4.62 59 9.24 59 14 C45.47 14 31.94 14 18 14 C18 19.61 18 25.22 18 31 C29.88 31 41.76 31 54 31 C54 35.62 54 40.24 54 45 C42.12 45 30.24 45 18 45 C18 50.61 18 56.22 18 62 C31.86 62 45.72 62 60 62 C60 66.95 60 71.9 60 77 C40.2 77 20.4 77 0 77 C0 51.59 0 26.18 0 0 Z " fill="#1D2549" transform="translate(736,489)"/>
<path d="M0 0 C19.14 0 38.28 0 58 0 C58 4.62 58 9.24 58 14 C44.8 14 31.6 14 18 14 C18 19.61 18 25.22 18 31 C29.88 31 41.76 31 54 31 C54 35.62 54 40.24 54 45 C42.12 45 30.24 45 18 45 C18 50.94 18 56.88 18 63 C31.86 63 45.72 63 60 63 C60 67.62 60 72.24 60 77 C40.2 77 20.4 77 0 77 C0 51.59 0 26.18 0 0 Z " fill="#1B2347" transform="translate(802,267)"/>
<path d="M0 0 C19.14 0 38.28 0 58 0 C58 4.62 58 9.24 58 14 C44.47 14 30.94 14 17 14 C17 19.61 17 25.22 17 31 C28.88 31 40.76 31 53 31 C53 35.62 53 40.24 53 45 C41.12 45 29.24 45 17 45 C17 50.94 17 56.88 17 63 C30.86 63 44.72 63 59 63 C59 67.62 59 72.24 59 77 C39.53 77 20.06 77 0 77 C0 51.59 0 26.18 0 0 Z " fill="#192145" transform="translate(737,378)"/>
<path d="M0 0 C19.14 0 38.28 0 58 0 C58 4.62 58 9.24 58 14 C44.47 14 30.94 14 17 14 C17 19.94 17 25.88 17 32 C28.88 32 40.76 32 53 32 C53 36.29 53 40.58 53 45 C41.12 45 29.24 45 17 45 C17 50.94 17 56.88 17 63 C30.86 63 44.72 63 59 63 C59 67.62 59 72.24 59 77 C39.53 77 20.06 77 0 77 C0 51.59 0 26.18 0 0 Z " fill="#182045" transform="translate(660,267)"/>
<path d="M0 0 C0.90427734 -0.01224609 1.80855469 -0.02449219 2.74023438 -0.03710938 C12.09357654 -0.05716658 20.02480059 1.02704386 27.9375 6.1875 C27.21741594 10.79603797 25.62454061 14.85987409 23.9375 19.1875 C20.50735828 18.76919003 17.8979255 18.1685646 14.76171875 16.66796875 C10.5971167 14.84034556 6.80909265 14.74099941 2.3125 14.8125 C1.57515625 14.80089844 0.8378125 14.78929687 0.078125 14.77734375 C-4.44253138 14.80164835 -7.55255139 15.25129299 -11.0625 18.1875 C-12.28599829 22.78406712 -12.28599829 22.78406712 -11.0625 27.1875 C-5.43908869 30.2223569 0.75847504 31.68714104 6.9375 33.125 C16.38464125 35.3681165 24.31780373 37.9335711 29.9375 46.1875 C32.42851168 50.55785145 32.67761877 54.24566528 31.9375 59.1875 C29.08009281 67.67042761 24.19288468 72.35057688 16.9375 77.1875 C11.00813448 79.36108865 5.46592053 79.53685334 -0.8125 79.5 C-2.2823938 79.49262817 -2.2823938 79.49262817 -3.78198242 79.48510742 C-14.669859 79.30837089 -22.81874574 76.9619934 -32.0625 71.1875 C-31.48905667 67.74080375 -30.62388422 64.96561835 -29 61.875 C-28.63777344 61.17761719 -28.27554688 60.48023438 -27.90234375 59.76171875 C-27.48662109 58.98248047 -27.48662109 58.98248047 -27.0625 58.1875 C-24.1106432 58.62159659 -21.92418471 59.25819448 -19.25 60.625 C-10.79269604 64.77073724 0.10670816 66.15817171 9.1875 63.125 C12.31774689 61.36564625 12.31774689 61.36564625 12.875 57.5 C12.895625 56.406875 12.91625 55.31375 12.9375 54.1875 C6.30116763 49.25279131 -0.53197358 47.48982115 -8.5625 45.8125 C-17.33988807 43.8334861 -23.90490668 40.68945392 -29.0625 33.1875 C-31.84121411 28.15935066 -31.83221528 23.05643876 -30.375 17.625 C-27.43129165 9.38261663 -22.61309899 5.69903087 -14.89453125 1.984375 C-9.88220955 -0.19582463 -5.37717854 0.00372123 0 0 Z " fill="#1B2347" transform="translate(692.0625,487.8125)"/>
<path d="M0 0 C1.64742187 -0.02416992 1.64742187 -0.02416992 3.328125 -0.04882812 C12.04282325 -0.05405276 18.24395348 1.46868822 25.625 6.3125 C24.90491594 10.92103797 23.31204061 14.98487409 21.625 19.3125 C18.19616384 18.89434925 15.58234422 18.29216776 12.4453125 16.796875 C8.30369427 14.98091364 4.53728325 14.83124656 0.0625 14.875 C-0.66646484 14.85501953 -1.39542969 14.83503906 -2.14648438 14.81445312 C-7.27693284 14.81907099 -10.39983483 15.79768259 -14.375 19.3125 C-14.87625283 22.98107722 -14.87625283 22.98107722 -14.375 26.3125 C-8.64298906 29.41460661 -3.32698594 31.27967554 3 32.75 C9.97866594 34.4968551 16.61136893 36.19538332 22.625 40.3125 C23.26050781 40.74433594 23.89601563 41.17617188 24.55078125 41.62109375 C28.27493971 44.91718802 29.00918625 48.19015705 29.33081055 53.11303711 C29.46651732 59.67569666 28.92393283 64.86476296 24.28125 69.8359375 C15.4090566 77.74558162 7.95550732 79.69763721 -3.6875 79.625 C-4.61594727 79.62008545 -5.54439453 79.6151709 -6.50097656 79.61010742 C-17.19600159 79.42723037 -25.29993373 76.98161547 -34.375 71.3125 C-33.80155667 67.86580375 -32.93638422 65.09061835 -31.3125 62 C-30.95027344 61.30261719 -30.58804687 60.60523438 -30.21484375 59.88671875 C-29.79912109 59.10748047 -29.79912109 59.10748047 -29.375 58.3125 C-25.21510028 58.92424996 -22.11543657 60.44228171 -18.375 62.3125 C-13.40760267 63.9743202 -9.04495691 64.60890013 -3.8125 64.625 C-2.55308594 64.64175781 -1.29367187 64.65851563 0.00390625 64.67578125 C3.92887968 64.28201369 6.34044929 63.48238418 9.625 61.3125 C10.60373538 57.71864946 10.60373538 57.71864946 10.625 54.3125 C3.98866763 49.37779131 -2.84447358 47.61482115 -10.875 45.9375 C-19.92534006 43.87820442 -25.90371836 40.85760767 -31.28125 33.1796875 C-34.03111374 28.48527726 -34.13541694 23.5832331 -33.375 18.3125 C-30.04328093 9.62714073 -24.1333343 4.92258611 -15.8671875 1.17578125 C-10.59076582 -0.12856908 -5.41437777 -0.01577616 0 0 Z " fill="#1B2347" transform="translate(1192.375,487.6875)"/>
<path d="M0 0 C1.90652425 1.64321059 3.72353006 3.31618362 5.484375 5.11328125 C4.03655707 8.5575639 2.20742891 10.47459087 -0.640625 12.86328125 C-1.36507813 13.476875 -2.08953125 14.09046875 -2.8359375 14.72265625 C-3.39023438 15.1815625 -3.94453125 15.64046875 -4.515625 16.11328125 C-6.9681692 15.24302363 -9.1979942 14.32795122 -11.359375 12.8671875 C-18.16393169 8.38582834 -24.5267151 8.11348851 -32.515625 9.11328125 C-38.7255331 10.78631513 -43.03859641 14.78700497 -46.515625 20.11328125 C-49.65058742 26.40482652 -49.29906525 33.29315408 -48.515625 40.11328125 C-46.20057321 46.70947661 -42.41696465 50.90958018 -36.34765625 54.2734375 C-30.07781345 57.14767247 -22.63168446 57.13824304 -16.140625 54.86328125 C-12.8143473 53.44452198 -10.32626291 51.37740623 -7.515625 49.11328125 C-3.515625 49.11328125 -3.515625 49.11328125 -1.015625 51.36328125 C-0.190625 52.27078125 0.634375 53.17828125 1.484375 54.11328125 C2.2475 54.83515625 3.010625 55.55703125 3.796875 56.30078125 C5.484375 58.11328125 5.484375 58.11328125 5.484375 60.11328125 C-6.61899855 71.05641856 -17.32676583 73.02256246 -33.13671875 72.30419922 C-44.23052827 71.41387091 -52.4338954 65.68569511 -59.828125 57.73828125 C-67.86323048 47.85063756 -68.32275472 36.30094001 -67.515625 24.11328125 C-65.71086147 13.1470486 -58.1315271 4.6194676 -49.515625 -1.88671875 C-35.41789758 -11.31317538 -13.36576358 -10.02432268 0 0 Z " fill="#1B2448" transform="translate(1071.515625,494.88671875)"/>
<path d="M0 0 C1.78674145 1.59546013 3.38054374 3.22871971 5 5 C3.35005906 7.01659448 1.68623626 9.01420315 0 11 C-0.680625 11.804375 -1.36125 12.60875 -2.0625 13.4375 C-3.0215625 14.2109375 -3.0215625 14.2109375 -4 15 C-7.25534119 14.56364576 -9.75138569 13.13624928 -12.5625 11.5 C-19.28063033 7.60280467 -25.29669439 7.09733734 -33 8 C-39.54499538 10.38720558 -43.80251738 14.10988011 -47.16015625 20.16796875 C-50.09336104 26.56644804 -50.12037212 34.15722834 -48.1640625 40.8671875 C-45.43862526 46.88509926 -41.7399155 50.74578013 -36 54 C-29.7062859 56.0979047 -21.79817876 55.94400601 -15.5 53.8125 C-11.75604984 51.87366867 -9.72364762 50.14921756 -7 47 C-3.54798361 48.47721422 -1.35038064 50.43794001 1.25 53.125 C1.95640625 53.84945312 2.6628125 54.57390625 3.390625 55.3203125 C4.18726563 56.15175781 4.18726563 56.15175781 5 57 C2.29563018 63.50169739 -4.58431122 66.60191509 -10.75 69.375 C-20.98810522 72.79732854 -34.56586273 72.83844758 -44.6875 69.0625 C-53.40237221 64.65526463 -60.74155886 57.82847553 -65 49 C-65.31710937 48.38382812 -65.63421875 47.76765625 -65.9609375 47.1328125 C-69.94036875 37.7501168 -69.56959902 24.84387579 -66 15.4375 C-61.23595996 5.78931808 -54.44107701 -0.10284271 -45 -5 C-44.38640625 -5.36222656 -43.7728125 -5.72445313 -43.140625 -6.09765625 C-29.67854103 -11.77236683 -11.38389453 -8.65781779 0 0 Z " fill="#1B2347" transform="translate(874,385)"/>
<path d="M0 0 C6.27 0 12.54 0 19 0 C23.45130611 9.49432663 27.60670513 19.06722069 31.625 28.75 C32.74077999 31.4328795 33.85804729 34.11513472 34.9765625 36.796875 C35.37177094 37.74487976 35.37177094 37.74487976 35.77496338 38.71203613 C37.78005476 43.50759782 39.86098157 48.26285675 42 53 C45.6251716 46.12196647 48.70176005 39.07779215 51.68969727 31.9074707 C54.5533792 25.04038953 57.47867598 18.20162345 60.4375 11.375 C61.09335083 9.85386597 61.09335083 9.85386597 61.76245117 8.30200195 C62.16955322 7.36445068 62.57665527 6.42689941 62.99609375 5.4609375 C63.35888428 4.62353027 63.7216748 3.78612305 64.09545898 2.92333984 C65 1 65 1 66 0 C68.86267567 -0.07325168 71.700719 -0.09238205 74.5625 -0.0625 C75.36880859 -0.05798828 76.17511719 -0.05347656 77.00585938 -0.04882812 C79.00393756 -0.03700518 81.00197783 -0.01906914 83 0 C82.36667832 3.92175718 81.16462692 7.18520735 79.5234375 10.796875 C78.77018188 12.4687085 78.77018188 12.4687085 78.00170898 14.17431641 C77.46489502 15.35429199 76.92808105 16.53426758 76.375 17.75 C72.95649372 25.33185416 69.54434699 32.90881444 66.4375 40.625 C63.03258776 49.07254842 59.33895047 57.39005702 55.64233398 65.71337891 C55.18544189 66.74382324 54.7285498 67.77426758 54.2578125 68.8359375 C53.8467627 69.75938965 53.43571289 70.6828418 53.01220703 71.63427734 C51.92829402 74.07770204 51.92829402 74.07770204 51 77 C44.73 77 38.46 77 32 77 C30.4221875 73.225625 30.4221875 73.225625 28.8125 69.375 C26.17804729 63.09393705 23.50178207 56.83189517 20.78515625 50.5859375 C20.50495132 49.94139618 20.2247464 49.29685486 19.93605042 48.63278198 C18.54242924 45.4287139 17.14585013 42.22597427 15.74536133 39.02490234 C12.47124925 31.50961129 9.35282864 23.95882847 6.36914062 16.32421875 C4.75553489 12.40644849 2.89706032 8.67758323 0.8828125 4.953125 C0 3 0 3 0 0 Z " fill="#1B2347" transform="translate(882,489)"/>
<path d="M0 0 C22.11 0 44.22 0 67 0 C67 4.62 67 9.24 67 14 C58.75 14 50.5 14 42 14 C42 35.12 42 56.24 42 78 C36.06 78 30.12 78 24 78 C24 56.88 24 35.76 24 14 C16.08 14 8.16 14 0 14 C0 9.38 0 4.76 0 0 Z " fill="#1D2448" transform="translate(660,378)"/>
<path d="M0 0 C22.11 0 44.22 0 67 0 C67 4.62 67 9.24 67 14 C59.08 14 51.16 14 43 14 C43 34.79 43 55.58 43 77 C37.06 77 31.12 77 25 77 C25 56.21 25 35.42 25 14 C16.75 14 8.5 14 0 14 C0 9.38 0 4.76 0 0 Z " fill="#192146" transform="translate(725,267)"/>
<path d="M0 0 C5.94 0 11.88 0 18 0 C18 20.79 18 41.58 18 63 C30.87 63 43.74 63 57 63 C57 67.62 57 72.24 57 77 C38.19 77 19.38 77 0 77 C0 51.59 0 26.18 0 0 Z " fill="#1D2549" transform="translate(1131,267)"/>
<path d="M0 0 C1.65 0 3.3 0 5 0 C5 269.94 5 539.88 5 818 C4.67 818 4.34 818 4 818 C3.67 551.03 3.34 284.06 3 9 C2.16773451 108.65744252 2.16773451 108.65744252 1.79939139 208.31410992 C1.79228663 215.71519325 1.78011464 223.1162698 1.76867336 230.51734742 C1.74559685 245.52694177 1.72610952 260.53653834 1.70907402 275.54614067 C1.69232402 290.29254899 1.67372822 305.03895332 1.65294075 319.78535652 C1.65162314 320.72072874 1.65030554 321.65610097 1.648948 322.6198178 C1.64224101 327.37485067 1.63550369 332.1298835 1.62875474 336.88491631 C1.58166289 370.10174038 1.53829786 403.31856827 1.49731445 436.53540039 C1.45762337 468.69751258 1.41612573 500.85962166 1.37231445 533.02172852 C1.37095192 534.02247677 1.36958939 535.02322502 1.36818558 536.05429898 C1.35449393 546.10910266 1.34076698 556.16390629 1.32701423 566.21870989 C1.29902775 586.68056075 1.27127608 607.14241193 1.2436676 627.60426331 C1.2423994 628.54396544 1.2411312 629.48366757 1.23982458 630.45184552 C1.15593111 692.63455856 1.07750148 754.81727871 1 817 C0.67 817 0.34 817 0 817 C0 547.39 0 277.78 0 0 Z " fill="#DEE0E3" transform="translate(0,6)"/>
<path d="M0 0 C5.94 0 11.88 0 18 0 C18 25.74 18 51.48 18 78 C12.06 78 6.12 78 0 78 C0 52.26 0 26.52 0 0 Z " fill="#20274B" transform="translate(972,488)"/>
<path d="M0 0 C2.97 -0.0825 5.94 -0.165 9 -0.25 C10.37865234 -0.30462402 10.37865234 -0.30462402 11.78515625 -0.36035156 C18.97899719 -0.45598152 24.02455403 1.47087092 29.5 6.125 C31.74204119 10.42224562 31.72991278 14.25556693 31 19 C29.10400382 23.34499125 27.76778098 24.64158897 23.46875 26.6484375 C18.62998595 28.36280852 14.07897999 28.33842691 9 28.1875 C6.03 28.125625 3.06 28.06375 0 28 C0 18.76 0 9.52 0 0 Z " fill="#F8F8F9" transform="translate(894,281)"/>
<path d="M0 0 C2.97 -0.0825 5.94 -0.165 9 -0.25 C10.37865234 -0.30462402 10.37865234 -0.30462402 11.78515625 -0.36035156 C18.99179537 -0.45615165 24.13048455 1.41743609 29.5 6.25 C31.97499669 10.78749393 31.54031488 14.83874047 30.3125 19.75 C28.06384279 23.60484093 25.18722513 25.60425829 21 27 C19.37280518 27.08143855 17.74248281 27.1075302 16.11328125 27.09765625 C15.26805908 27.09515869 14.42283691 27.09266113 13.55200195 27.09008789 C12.48296631 27.08098389 11.41393066 27.07187988 10.3125 27.0625 C5.2078125 27.0315625 5.2078125 27.0315625 0 27 C0 18.09 0 9.18 0 0 Z " fill="#FBFBFC" transform="translate(828,503)"/>
<path d="M0 0 C2.72305747 2.37620228 3.89083909 4.66281361 5.2265625 8 C5.6184375 8.969375 6.0103125 9.93875 6.4140625 10.9375 C6.81367187 11.948125 7.21328125 12.95875 7.625 14 C8.03234375 15.010625 8.4396875 16.02125 8.859375 17.0625 C11.77029221 24.31087662 11.77029221 24.31087662 13 28 C5.08 28 -2.84 28 -11 28 C-10.23352724 24.16763618 -9.42547879 21.27856787 -7.96875 17.734375 C-7.57042969 16.76242187 -7.17210937 15.79046875 -6.76171875 14.7890625 C-6.13716797 13.28472656 -6.13716797 13.28472656 -5.5 11.75 C-5.08363281 10.73164063 -4.66726563 9.71328125 -4.23828125 8.6640625 C-1.13722364 1.13722364 -1.13722364 1.13722364 0 0 Z " fill="#F8F9F9" transform="translate(1079,286)"/>
<path d="M0 0 C0.33 0 0.66 0 1 0 C1 1.98 1 3.96 1 6 C-15.17 6 -31.34 6 -48 6 C-48 5.34 -48 4.68 -48 4 C-32.49 4 -16.98 4 -1 4 C-0.67 2.68 -0.34 1.36 0 0 Z " fill="#0B1A3D" transform="translate(1186,338)"/>
<path d="M0 0 C0 0.66 0 1.32 0 2 C-16.5 2 -33 2 -50 2 C-47.57097774 -0.42902226 -46.9145466 -0.26721697 -43.58203125 -0.3347168 C-42.21050903 -0.36936287 -42.21050903 -0.36936287 -40.8112793 -0.40470886 C-39.82168213 -0.41939713 -38.83208496 -0.43408539 -37.8125 -0.44921875 C-36.79905518 -0.47095657 -35.78561035 -0.4926944 -34.74145508 -0.51509094 C-32.59628147 -0.55905263 -30.45100562 -0.59824217 -28.30566406 -0.63305664 C-25.01334187 -0.68728026 -21.72164989 -0.75745407 -18.4296875 -0.83007812 C-16.34897658 -0.87073641 -14.26824756 -0.91048077 -12.1875 -0.94921875 C-11.19790283 -0.96997971 -10.20830566 -0.99074066 -9.1887207 -1.01213074 C-7.81719849 -1.03259209 -7.81719849 -1.03259209 -6.41796875 -1.0534668 C-5.61125732 -1.06741989 -4.8045459 -1.08137299 -3.97338867 -1.0957489 C-2 -1 -2 -1 0 0 Z " fill="#09193B" transform="translate(861,342)"/>
<path d="M0 0 C0.33 0 0.66 0 1 0 C1.01030746 0.83049866 1.02061493 1.66099731 1.03123474 2.5166626 C1.12922457 10.34447444 1.2317412 18.1722111 1.33933926 25.999897 C1.39449643 30.02415519 1.44790482 34.04842073 1.49731445 38.07275391 C1.54506441 41.95666491 1.59741088 45.84048928 1.65294075 49.72429657 C1.67331618 51.20582674 1.69203711 52.68738062 1.70907402 54.16895294 C1.73322485 56.24455833 1.76326432 58.32000139 1.79467773 60.39550781 C1.81022202 61.57687317 1.8257663 62.75823853 1.84178162 63.97540283 C1.97373377 66.49787902 2.2628844 68.59843504 3 71 C2.01 71 1.02 71 0 71 C0 47.57 0 24.14 0 0 Z " fill="#11173C" transform="translate(660,273)"/>
<path d="M0 0 C1.32 0.33 2.64 0.66 4 1 C3.01 2.485 3.01 2.485 2 4 C1.67007391 6.97250877 1.67007391 6.97250877 1.68115234 10.39916992 C1.66608391 11.36543053 1.66608391 11.36543053 1.65071106 12.35121155 C1.61985295 14.47762165 1.60283707 16.6039057 1.5859375 18.73046875 C1.56722791 20.20592841 1.54765466 21.68137735 1.5272522 23.15681458 C1.47590264 27.03817425 1.43629219 30.91956863 1.39910889 34.80108643 C1.35908684 38.76266077 1.30798632 42.7240904 1.2578125 46.68554688 C1.16101982 54.45693201 1.0766259 62.22838709 1 70 C0.67 70 0.34 70 0 70 C0 46.9 0 23.8 0 0 Z " fill="#13193D" transform="translate(1090,489)"/>
<path d="M0 0 C0.33 0.66 0.66 1.32 1 2 C8.26 2 15.52 2 23 2 C23 2.33 23 2.66 23 3 C10.625 3.495 10.625 3.495 -2 4 C-1.34 2.68 -0.68 1.36 0 0 Z " fill="#0E1A3E" transform="translate(662,388)"/>
<path d="M0 0 C1.66832577 2.50248865 2.62381674 4.41149187 3.625 7.1875 C3.88539062 7.90292969 4.14578125 8.61835938 4.4140625 9.35546875 C4.60742188 9.89816406 4.80078125 10.44085938 5 11 C3.68 11 2.36 11 1 11 C1 9.68 1 8.36 1 7 C0.34 6.34 -0.32 5.68 -1 5 C-0.625 2.375 -0.625 2.375 0 0 Z " fill="#262D4F" transform="translate(1117,331)"/>
<path d="M0 0 C2.76276177 0.52268466 5.3260876 1.10869587 8 2 C7.67 3.32 7.34 4.64 7 6 C5.83054208 5.19152271 4.66449539 4.37810888 3.5 3.5625 C2.8503125 3.11003906 2.200625 2.65757812 1.53125 2.19140625 C1.0259375 1.79824219 0.520625 1.40507812 0 1 C0 0.67 0 0.34 0 0 Z " fill="#2B3351" transform="translate(383,391)"/>
<path d="M0 0 C0 3 0 3 -1.3125 4.38671875 C-2.875 5.59114583 -4.4375 6.79557292 -6 8 C-6.66 7.67 -7.32 7.34 -8 7 C-5.36 4.69 -2.72 2.38 0 0 Z " fill="#272C4C" transform="translate(457,379)"/>
</svg>
