<?xml version="1.0" encoding="utf-8"?>
<!-- Generator: Adobe Illustrator 27.5.0, SVG Export Plug-In . SVG Version: 6.00 Build 0)  -->
<svg version="1.1" id="Ñëîé_1" xmlns="http://www.w3.org/2000/svg" xmlns:xlink="http://www.w3.org/1999/xlink" x="0px" y="0px"
	 viewBox="0 0 4384.863 2200" style="enable-background:new 0 0 4384.863 2200;" xml:space="preserve">
<rect x="0" style="fill:#FFFFFF;" width="4384.863" height="2200"/>
<g>
	<path style="fill:#E5F0F8;" d="M518.668,2069.221c0,0-274.164-577.633,13.374-909.78s559.474,75.158,858.157-51.26
		s271.118-963.637,992.601-932.743s719.998,629.337,1079.606,817.206s802.432,161.094,680.581,1076.577H518.668z"/>
	<path style="fill:#0775EF;" d="M4193.591,2083.5H378.556c-17.342,0-31.401-14.059-31.401-31.401v-5.071
		c0-17.342,14.059-31.401,31.401-31.401h3815.036c17.342,0,31.4,14.058,31.4,31.401v5.071
		C4224.992,2069.441,4210.933,2083.5,4193.591,2083.5z"/>
	<path style="fill:#E5F0F8;" d="M679.229,302.647c0,27.467-19.36,51.551-48.47,65.132c-15.864,7.421-34.649,11.699-54.758,11.699
		c-11.635,0-22.807-1.452-33.244-4.086l-75.905,32.446l21.753-64.302c-10.023-11.842-15.848-25.855-15.848-40.889
		c0-42.437,46.22-76.831,103.245-76.831c40.777,0,76.033,17.604,92.807,43.156C675.479,279.138,679.229,290.565,679.229,302.647z"/>
	<g>
		<path style="fill:#E5F0F8;" d="M1078.754,458.605c-24.23-6.393-47.917-13.578-68.68-20.762c-3.728-1.333-7.455-2.666-10.901-2.666
			c-42.586-1.593-79.061-33.007-79.061-90.764c0-57.486,35.131-94.481,83.569-94.481c48.719,0,80.383,37.797,80.383,90.753
			c0,46.054-21.282,75.593-51.104,85.974v1.062c17.836,4.53,37.276,8.788,52.447,11.454L1078.754,458.605z M1059.574,341.759
			c0-35.933-18.617-72.927-56.673-72.927c-39.14,0-58.299,36.193-58.039,75.051c-0.26,38.068,20.762,72.397,56.955,72.397
			C1038.834,416.279,1059.574,382.741,1059.574,341.759z"/>
	</g>
	<path style="fill:#E5F0F8;" d="M1631.445,326.038l-7.537-3.515l-0.032,0.07l-0.031-0.061c3.911-11.374,6.03-23.581,6.03-36.279
		c0-61.667-49.99-111.649-111.649-111.649c-61.667,0-111.649,49.982-111.649,111.649c0,12.729,2.127,24.96,6.053,36.357v0.008
		l-7.346,3.42c-0.569,0.265-0.81,0.943-0.545,1.511l15.183,32.571c0.265,0.569,0.943,0.818,1.511,0.553l7.533-3.521l0.07,0.148
		l3.763,0.834l14.599,3.249l0.779,0.171c0,0,3.287,2.174,5.523,1.13l9.972-4.651c2.267-1.052,3.248-3.747,2.189-6.014
		l-25.287-54.243c-1.059-2.267-3.755-3.249-6.022-2.189l-9.971,4.651c-2.267,1.059-2.688,4.962-2.688,4.962l-3.638,7.003
		c-2.142-8.289-3.287-16.983-3.287-25.949c0-57.024,46.235-103.259,103.259-103.259c57.024,0,103.251,46.235,103.251,103.259
		c0,8.834-1.106,17.403-3.194,25.583l-3.451-6.637c0,0-0.428-3.911-2.68-4.962l-9.972-4.651c-2.267-1.059-4.962-0.078-6.022,2.189
		l-25.295,54.243c-1.052,2.267-0.07,4.962,2.197,6.014l9.971,4.651c2.267,1.06,5.523-1.13,5.523-1.13l0.413-0.094
		c-15.721,14.794-36.077,24.711-58.653,27.344c-1.137-2.283-3.428-3.887-6.131-4.059l-23.082-1.426
		c-2.797-0.171-5.305,1.231-6.692,3.428c-0.717,1.137-1.13,2.477-1.13,3.926v6.996c0,4.246,3.583,7.611,7.821,7.346l23.082-1.426
		c3.568-0.218,6.411-2.953,6.848-6.411c29.026-3.319,54.671-17.762,72.558-38.967l4.105-0.911l0.068-0.143l7.532,3.512
		c0.569,0.265,1.246,0.019,1.511-0.55l15.188-32.57C1632.261,326.98,1632.014,326.303,1631.445,326.038z M1623.817,322.718
		l-0.112,0.241v-0.006L1623.817,322.718z M1623.693,322.985l-0.003,0.007v0C1623.689,322.99,1623.692,322.987,1623.693,322.985z"/>
	<g>
		<path style="fill:#BBDBF3;" d="M1339.263,496.71H791.485c-6.485,0-11.742,8.111-11.742,18.116v41.945V929.95h571.263V556.771
			v-41.945C1351.006,504.82,1345.748,496.71,1339.263,496.71z"/>
		<rect x="787.378" y="537.426" style="fill:#FFFFFF;" width="555.991" height="383.037"/>
		<g>
			
				<line style="fill:none;stroke:#FFFFFF;stroke-width:4.053;stroke-linecap:round;stroke-linejoin:round;stroke-miterlimit:10;" x1="1303.773" y1="531.504" x2="1329.047" y2="506.229"/>
			
				<line style="fill:none;stroke:#FFFFFF;stroke-width:4.053;stroke-linecap:round;stroke-linejoin:round;stroke-miterlimit:10;" x1="1329.047" y1="531.504" x2="1303.773" y2="506.229"/>
		</g>
		<g>
			<path style="fill:#BBDBF3;" d="M916.415,787.583h-89.44v-29.018l83.512-134.462h34.344v138.607h29.621v24.873h-29.621v46.202
				h-28.416V787.583z M916.415,657.869h-0.603l-63.965,104.841h64.568V657.869z"/>
			<path style="fill:#BBDBF3;" d="M991.635,728.944c0-7.688,0.386-15.69,1.181-23.981c0.795-8.291,2.217-16.437,4.29-24.439
				s4.844-15.642,8.291-22.945c3.446-7.303,7.905-13.69,13.328-19.112c5.423-5.423,11.858-9.761,19.257-13.039
				c7.399-3.254,16.027-4.868,25.909-4.868c9.882,0,18.51,1.615,25.909,4.868c7.399,3.278,13.834,7.616,19.257,13.039
				c5.423,5.423,9.882,11.81,13.328,19.112c3.446,7.303,6.218,14.943,8.291,22.945c2.073,8.002,3.495,16.148,4.29,24.439
				c0.795,8.291,1.181,16.292,1.181,23.981c0,11.063-0.988,22.896-2.964,35.55c-1.976,12.629-5.616,24.366-10.942,35.236
				c-5.326,10.87-12.702,19.835-22.077,26.945c-9.375,7.11-21.474,10.653-36.273,10.653c-14.798,0-26.897-3.543-36.273-10.653
				c-9.375-7.11-16.726-16.076-22.077-26.945c-5.326-10.87-8.99-22.607-10.942-35.236
				C992.624,751.841,991.635,740.007,991.635,728.944z M1020.051,728.944c0,6.917,0.458,15.112,1.35,24.583
				c0.892,9.472,2.796,18.606,5.76,27.403c2.964,8.773,7.351,16.244,13.183,22.342c5.833,6.122,13.666,9.183,23.547,9.183
				c9.882,0,17.715-3.061,23.547-9.183c5.808-6.098,10.219-13.569,13.183-22.342c2.964-8.797,4.893-17.932,5.76-27.403
				c0.892-9.472,1.35-17.666,1.35-24.583c0-4.748-0.145-10.123-0.458-16.148c-0.289-6.001-0.988-12.123-2.073-18.365
				c-1.085-6.218-2.603-12.219-4.579-18.052c-1.976-5.833-4.603-11.063-7.857-15.69c-3.254-4.651-7.255-8.339-12.003-11.111
				c-4.724-2.772-10.364-4.146-16.871-4.146c-6.507,0-12.147,1.374-16.871,4.146c-4.748,2.772-8.749,6.459-12.003,11.111
				c-3.254,4.628-5.881,9.857-7.857,15.69c-1.976,5.832-3.495,11.834-4.579,18.052c-1.085,6.242-1.784,12.364-2.073,18.365
				C1020.22,718.822,1020.051,724.196,1020.051,728.944z"/>
			<path style="fill:#BBDBF3;" d="M1245.737,787.583h-89.44v-29.018l83.511-134.462h34.345v138.607h29.621v24.873h-29.621v46.202
				h-28.416V787.583z M1245.737,657.869h-0.603l-63.965,104.841h64.568V657.869z"/>
		</g>
	</g>
	<g>
		<rect x="2239.611" y="1549.41" style="fill:#93ACBF;" width="310.442" height="419.64"/>
		<path style="fill:#93ACBF;" d="M3186.843,1727.301h-1584.02c-94.39,0-170.907-76.518-170.907-170.907V644.46
			c0-94.39,76.518-170.908,170.907-170.908h1584.02c94.39,0,170.907,76.518,170.907,170.908v911.934
			C3357.75,1650.783,3281.232,1727.301,3186.843,1727.301z"/>
		<path style="fill:#93ACBF;" d="M2028.264,1933.032h733.138c6.572,0,11.9,5.328,11.9,11.9v58.527c0,6.572-5.328,11.9-11.9,11.9
			h-733.138c-6.572,0-11.9-5.328-11.9-11.9v-58.527C2016.364,1938.36,2021.691,1933.032,2028.264,1933.032z"/>
		<rect x="2292.389" y="1549.41" style="fill:#BBDBF3;" width="310.442" height="419.64"/>
		<path style="fill:#BBDBF3;" d="M3239.62,1727.301H1655.6c-94.39,0-170.908-76.518-170.908-170.907V644.46
			c0-94.39,76.518-170.908,170.908-170.908h1584.02c94.39,0,170.907,76.518,170.907,170.908v911.934
			C3410.528,1650.783,3334.01,1727.301,3239.62,1727.301z"/>
		<path style="fill:#93ACBF;" d="M1655.602,1663.223c-58.906,0-106.83-47.924-106.83-106.83V644.461
			c0-58.906,47.924-106.83,106.83-106.83h1584.017c58.906,0,106.83,47.924,106.83,106.83v911.932
			c0,58.906-47.924,106.83-106.83,106.83H1655.602z"/>
		<path style="fill:#E5F0F8;" d="M1655.602,1651.519c-52.455,0-95.127-42.672-95.127-95.127V644.46
			c0-52.453,42.672-95.129,95.127-95.129h1584.017c52.455,0,95.127,42.676,95.127,95.129v911.932
			c0,52.455-42.672,95.127-95.127,95.127H1655.602z"/>
		<path style="fill:#E5F0F8;" d="M3306.375,644.47v911.976c0,30.628-20.804,56.467-49.037,64.186
			c-5.655,1.61-11.557,2.435-17.708,2.435H1655.662c-36.819,0-66.745-29.926-66.745-66.621V644.47
			c0-36.778,29.926-66.704,66.745-66.704H3239.63C3276.448,577.766,3306.375,607.692,3306.375,644.47z"/>
		<path style="fill:#BBDBF3;" d="M2081.042,1933.032h733.137c6.572,0,11.9,5.328,11.9,11.9v58.527c0,6.572-5.328,11.9-11.9,11.9
			h-733.137c-6.573,0-11.9-5.328-11.9-11.9v-58.527C2069.141,1938.36,2074.469,1933.032,2081.042,1933.032z"/>
		<path style="fill:#BBDBF3;" d="M3306.362,644.492v25.751H1588.903v-25.751c0-36.804,29.916-66.72,66.72-66.72h1584.019
			C3276.446,577.772,3306.362,607.688,3306.362,644.492z"/>
		<g>
			<path style="fill:#403534;" d="M2176.985,247.14c0,0-57.544-1.379-67.774,24.816c-10.23,26.195-32.885,32.566-59.787,46.017
				c-26.903,13.451-43.186,45.66-24.071,68.848c19.115,23.187-2.124,54.536-24.779,54.791c-22.655,0.255-48.849,32.821-31.15,49.812
				c17.699,16.991,16.671,46.207-5.823,46.207c-22.495,0-39.486,14.939-32.406,35.693c7.08,20.754-9.994,34.914-9.994,34.914
				s15.569,11.504,32.826,8.318c17.256-3.186,29.203-8.495,40.088-2.655c10.885,5.841,37.434,11.983,45.133,10.107
				c7.699-1.877,27.876-12.938,48.407-5.151c20.531,7.788,40.354,12.426,53.097,5.151c12.743-7.275,67.557-9.362,85.636,0
				c18.08,9.362,46.398,3.381,57.726,0c11.327-3.381,23.009-5.468,32.92,0c9.912,5.469,25.133,2.319,30.442,0
				c0,0,6.018-13.292-3.54-23.912c-9.557-10.619-10.265-20.27-4.956-26.772c5.31-6.502,9.203-23.822,0-35.693
				c-9.204-11.871-4.956-21.074-0.708-28.154c4.248-7.08,7.434-28.163-0.708-35.143s-4.602-22.91,1.062-34.237
				c5.664-11.327,5.664-19.688-5.664-28.782c-11.327-9.094-3.54-25.377,0-35.997c3.54-10.619-0.741-27.424-9.026-45.352
				C2315.65,312.037,2176.985,247.14,2176.985,247.14z"/>
			<path style="fill:#088CFC;" d="M2476.828,1623.067h-659.856c18.038-61.792,42.763-113.884,72.441-154.624
				c15.314-21.01,31.949-38.966,49.739-53.702h457.804C2440.05,1483.468,2465.146,1548.851,2476.828,1623.067z"/>
			<polygon style="fill:#E89780;" points="1927.344,1317.992 1996.042,1334.238 1961.693,1390.594 			"/>
			<path style="fill:#F74242;" d="M2099.099,651.19l-177.9,52.385l17.94,711.171h457.834c0,0,30.845-610.864,45.119-709.677
				l-182.648-53.38L2099.099,651.19z"/>
			<path style="fill:#FDAE97;" d="M2094.587,647.537l0.128,0.129c2.052,3.594,36.707,61.991,102.291,57.114
				c58.012-4.364,62.375-53.135,62.375-53.135V429.479l-163.987,5.255L2094.587,647.537z"/>
			<polygon style="fill:#FFFFFF;" points="2096.421,637.509 2180.751,702.489 2158.118,769.64 2075.216,653.093 			"/>
			<polygon style="fill:#FFFFFF;" points="2259.382,637.509 2180.751,702.489 2207.195,769.64 2272.022,655.364 			"/>
			<polygon style="fill:#E89780;" points="2259.382,630.58 2151.23,541.72 2259.382,556.046 			"/>
			<path style="fill:#F74242;" d="M2593.741,1318.815l-1.179,0.382c-51.801,16.813-107.939-11.815-124.752-63.616l-136.987-422.074
				c-16.812-51.801,11.815-107.94,63.616-124.752l1.179-0.383c51.801-16.813,107.939,11.815,124.752,63.616l136.987,422.074
				C2674.169,1245.864,2645.542,1302.002,2593.741,1318.815z"/>
			<path style="fill:#FDAE97;" d="M1957.999,1356.972l99.975-44.888l59.668,27.703l14.207,51.854c0,0-6.159,5.357-14.984-1.262
				c-8.051-6.038-21.243-26.495-21.243-26.495l-28.146-3.498l-11.632,7.433l49.723,24.532c0,0,14.369,35.399,11.284,48.582
				c-0.804,3.435-1.991,9.414-10.816,5.002c-3.638-1.819-10.768-7.057-10.768-7.057s-0.25,11.694-2.397,14.751
				c-2.376,3.382-12.507,6.947-16.117-3.683c-2.854-8.405-4.814-30.085-4.814-30.085l-43.798,12.268l29.301,13.884l3.996,38.891
				c0,0-19.671,8.913-24.24-20.454c0,0-19.712-13.851-66.594,2.664s-73.811,9.782-104.831-12.956L1957.999,1356.972z"/>
			<polyline style="fill:none;stroke:#332B27;stroke-width:3.2832;stroke-miterlimit:10;" points="2095.266,1438.879 
				2088.341,1402.652 2042.524,1394.661 			"/>
			<path style="fill:#F74242;" d="M1979.883,1343.146l-280.794-315.035c-34.473-36.421-96.439-34.391-137.852,4.604
				c-41.303,39.048-46.924,100.89-12.504,137.421l302.084,309.017L1979.883,1343.146z"/>
			<path style="fill:#F74242;" d="M1557.76,1172.347l0.854,0.898c37.547,39.45,100.543,41.007,139.993,3.46l321.434-305.928
				c39.45-37.547,41.007-100.544,3.46-139.993l-0.854-0.898c-37.547-39.45-100.543-41.007-139.993-3.46l-321.434,305.928
				C1521.771,1069.901,1520.214,1132.897,1557.76,1172.347z"/>
			<path style="fill:#403534;" d="M2310.065,386.821c0,0,42.798-57.322-14.783-93.086L2310.065,386.821z"/>
			<path style="fill:#FDAE97;" d="M2141.738,536.086c39.066,39.273,93.546,53.453,132.171,39.927
				c38.624-13.392,46.435-65.442,45.034-100.147c-0.001-0.133-0.001-0.133-0.002-0.266c-0.308-7.18-0.766-17.286-1.232-28.721
				c-1.723-44.811-4.238-111.164-4.238-111.164c0.359-34.622-73.656-132.04-186.683-59.692
				C2013.76,348.503,2102.672,496.812,2141.738,536.086z"/>
			<path style="fill:#403534;" d="M2313.951,321.805c0,0-11.373,38.634-72.726,50.419c-61.353,11.785-123.529,38.066-132.015,97.292
				c-8.486,59.226-36.675,86.53-36.675,86.53s10.588-73.804-9.725-143.946c-7.879-27.208-7.2-80.093,27.267-116.843
				C2144.466,237.266,2252.744,210.684,2313.951,321.805z"/>
			<path style="fill:#FDAE97;" d="M2121.771,459.589c7.208,20.404,7.328,33.611-8.691,39.27
				c-16.019,5.659-38.554-2.551-45.762-22.955c-7.208-20.403-0.066-41.531,15.954-47.191
				C2099.29,423.055,2114.562,439.186,2121.771,459.589z"/>
			
				<path style="fill:none;stroke:#E89780;stroke-width:2.6875;stroke-linecap:round;stroke-linejoin:round;stroke-miterlimit:10;" d="
				M2087.682,464.504c12.879-2.583,21.529,5.011,21.529,5.011c-2.729-21.842-28.573-20.045-28.573-20.045"/>
			<path style="fill:#332B27;" d="M2216.739,427.81c0.132,8.359,4.622,15.067,10.03,14.982c5.408-0.085,9.685-6.931,9.553-15.29
				c-0.132-8.359-4.623-15.067-10.031-14.982C2220.884,412.605,2216.607,419.451,2216.739,427.81z"/>
			<path style="fill:#332B27;" d="M2288.057,420.194c0.132,8.359,4.623,15.067,10.03,14.982c5.408-0.085,9.685-6.931,9.553-15.29
				c-0.132-8.359-4.622-15.067-10.03-14.982C2292.202,404.989,2287.925,411.835,2288.057,420.194z"/>
			<path style="fill:none;stroke:#332B27;stroke-width:3.99;stroke-miterlimit:10;" d="M2197.432,411.315
				c0,0,16.453-21.098,36.131-13.87"/>
			<path style="fill:none;stroke:#332B27;stroke-width:3.99;stroke-miterlimit:10;" d="M2288.484,392.276
				c0,0,11.861-3.622,26.237,8.046"/>
			<path style="fill:none;stroke:#332B27;stroke-width:3.99;stroke-miterlimit:10;" d="M2262.822,421.791
				c0,0,1.613,41.404,26,46.087c0,0-7.622,7.16-17.266,10.209"/>
			<path style="fill:none;stroke:#332B27;stroke-width:3.99;stroke-miterlimit:10;" d="M2276.217,512.522
				c0,0-26.83,11.813-46.728-17.66"/>
			
				<ellipse transform="matrix(0.2792 -0.9602 0.9602 0.2792 1143.6541 2450.4492)" style="fill:#E89780;" cx="2204.024" cy="463.459" rx="15.776" ry="30.933"/>
			<path style="fill:#E89780;" d="M2302.533,467.051c1.493,5.178,7.895,8.2,16.409,8.549c-0.308-7.18-0.766-17.286-1.232-28.721
				C2306.969,452.528,2300.5,460.546,2302.533,467.051z"/>
			<path style="fill:none;stroke:#FFFFFF;stroke-width:3.986;stroke-miterlimit:10;" d="M1962.852,981.667
				c0,0,38.082,68.02,139.121,42.609"/>
			<path style="fill:none;stroke:#FFFFFF;stroke-width:3.986;stroke-miterlimit:10;" d="M2237.408,1016.304
				c0,0,99.964,54.054,153.708-18.462"/>
			<path style="fill:#FDAE97;" d="M2913.463,709.953c0,0,5.775-40.684-4.65-46.141c-10.426-5.459-9.94,3.641-9.94,3.641
				s-4.927-25.656-14.99-28.106c-10.063-2.448-10.848,13.825-10.848,13.825s-9.035-14.173-19.913-10.723
				c-10.877,3.448-18.048,45.215-24.368,63.682c-6.318,18.466-24.466,60.337-30.939,62.338c-6.474,2.002,4.345-57.604-7.212-62.314
				c-11.557-4.711-43.665,75.778-51.878,106.377c-3.533,13.161-9.644,28.313-15.467,41.326l90.848,54.769
				c11.178-13.795,64.241-79.619,83.26-109.434c21.306-33.4,34.801-86.003,27.456-91.222
				C2917.479,702.753,2913.463,709.953,2913.463,709.953z"/>
			<path style="fill:#F74242;" d="M2474.851,1189.575c-23.215,42.048-3.235,97.971,44.401,124.271
				c47.636,26.302,105.607,13.418,128.822-28.63l181.635-375.658l-110.977-66.131L2474.851,1189.575z"/>
			
				<ellipse transform="matrix(0.9903 -0.1389 0.1389 0.9903 -45.3746 296.1147)" style="fill:#088CFC;" cx="2098.255" cy="473.056" rx="29.547" ry="39.293"/>
			
				<ellipse transform="matrix(0.9903 -0.1389 0.1389 0.9903 -45.6403 294.8617)" style="fill:#2EC6FC;" cx="2089.151" cy="474.333" rx="20.355" ry="30.102"/>
			<path style="fill:none;stroke:#088CFC;stroke-width:9.3133;stroke-miterlimit:10;" d="M2109.21,500.606
				c0,0,37.867,71.299,147.116,62.66"/>
			<ellipse style="fill:#2EC6FC;" cx="2259.824" cy="562.416" rx="20.451" ry="10.908"/>
			<path style="fill:#088CFC;" d="M2101.973,441.611c0,0,12.36-149.835,143.632-186.992c0,0-21.928-17.173-52.065-9.506
				c0,0-101.796,52.587-108.034,191.41L2101.973,441.611z"/>
		</g>
		<g>
			<polygon style="fill:#586773;" points="3028.925,242.03 3062.833,242.03 3084.427,294.236 3044.957,297.078 			"/>
			<polygon style="fill:#586773;" points="2722.775,242.03 2756.683,242.03 2713.405,325.03 2695.722,277.816 			"/>
			<path style="fill:#586773;" d="M3155.511,471.053c0-95.833-50.361-180.187-126.586-229.024v252.554l-153.045,88.793
				l-153.105-88.793V242.03c-76.225,48.9-126.525,133.19-126.525,229.024c0,122.715,82.548,226.527,196.249,261.234v917.289
				c-64.505,31.059-109.01,97.041-109.01,173.44c0,106.217,86.117,192.391,192.391,192.391
				c106.218,0,192.391-86.174,192.391-192.391c0-76.392-44.527-142.368-109.017-173.432V732.29
				C3072.958,697.584,3155.511,593.771,3155.511,471.053z M3016.917,1823.017l-70.547,122.127h-141.037l-70.49-122.127
				l70.49-122.127h141.037L3016.917,1823.017z"/>
			<path style="fill:#93ACBF;" d="M3189.419,471.053c0-95.833-50.361-180.187-126.586-229.024v252.554l-153.045,88.793
				l-153.105-88.793V242.03c-76.226,48.9-126.525,133.19-126.525,229.024c0,122.715,82.548,226.527,196.25,261.234v917.289
				c-64.505,31.059-109.01,97.041-109.01,173.44c0,106.217,86.117,192.391,192.391,192.391
				c106.217,0,192.391-86.174,192.391-192.391c0-76.392-44.527-142.368-109.017-173.432V732.29
				C3106.866,697.584,3189.419,593.771,3189.419,471.053z M3050.825,1823.017l-70.547,122.127H2839.24l-70.49-122.127l70.49-122.127
				h141.037L3050.825,1823.017z"/>
			<path style="fill:#586773;" d="M2909.784,1580.965L2909.784,1580.965c-15.521,0-28.22-12.699-28.22-28.22V796.102
				c0-15.521,12.699-28.22,28.22-28.22h0c15.521,0,28.22,12.699,28.22,28.22v756.643
				C2938.004,1568.266,2925.305,1580.965,2909.784,1580.965z"/>
		</g>
	</g>
	<g>
		<polygon style="fill:#93ACBF;" points="3247,1049.901 3293.242,1050.016 3295.127,291.082 3272.128,242.03 3248.885,290.967 		"/>
		<path style="fill:#6ADB6A;" d="M3192.619,2015.254l150.207,0.373c20.545,0.051,37.241-16.562,37.292-37.107l1.946-783.103
			l-224.606-0.558l-1.945,783.103C3155.461,1998.507,3172.074,2015.203,3192.619,2015.254z"/>
		<path style="fill:#6ADB6A;" d="M3157.745,1079.04l224.606,0.558l0.127-51.289c0.01-4.104-3.309-7.44-7.413-7.45l-209.742-0.521
			c-4.104-0.01-7.44,3.309-7.45,7.413L3157.745,1079.04z"/>
		<path style="fill:#40A87B;" d="M3184.021,1138.56c-1.385-33.768-26.277-59.52-26.277-59.52l112.302,0.279l112.304,0.279
			c0,0-25.02,25.628-26.572,59.389c-1.551,33.761,26.284,56.431,26.284,56.431l-112.304-0.279l-112.303-0.279
			C3157.457,1194.86,3185.406,1172.328,3184.021,1138.56z"/>
		<path style="fill:#40A87B;" d="M3267.874,1954.254L3267.874,1954.254c8.478,0.021,15.431-6.898,15.452-15.376l1.652-665.01
			c0.021-8.478-6.898-15.431-15.376-15.452l0,0c-8.478-0.021-15.431,6.898-15.452,15.376l-1.652,665.01
			C3252.477,1947.28,3259.396,1954.233,3267.874,1954.254z"/>
		<path style="fill:#40A87B;" d="M3206.218,1954.101L3206.218,1954.101c8.478,0.021,15.431-6.898,15.452-15.376l1.652-665.01
			c0.021-8.478-6.898-15.431-15.376-15.452l0,0c-8.478-0.021-15.431,6.898-15.452,15.376l-1.652,665.01
			C3190.821,1947.126,3197.74,1954.08,3206.218,1954.101z"/>
		<path style="fill:#40A87B;" d="M3329.531,1954.407L3329.531,1954.407c-8.478-0.021-15.397-6.975-15.376-15.452l1.652-665.01
			c0.021-8.478,6.975-15.397,15.452-15.376l0,0c8.478,0.021,15.397,6.975,15.376,15.452l-1.652,665.01
			C3344.962,1947.509,3338.009,1954.428,3329.531,1954.407z"/>
		<polygon style="fill:#586773;" points="3295.127,291.082 3272.128,242.03 3278.51,332.117 		"/>
		<polygon style="fill:#586773;" points="3248.885,290.967 3272.128,242.03 3265.298,332.084 		"/>
	</g>
	<g>
		<path style="fill:#322A28;" d="M1009.412,942.803H895.615v-59.781h293.665v59.781h-113.796v311.49h-66.072V942.803z"/>
		<path style="fill:#322A28;" d="M1234.37,883.022h245.941v59.781h-179.869v91.246h170.429v59.781h-170.429v100.683h189.308v59.781
			h-255.38V883.022z"/>
		<path style="fill:#322A28;" d="M1809.627,970.071c-13.634-14.682-26.832-24.466-39.593-29.365
			c-12.767-4.891-25.613-7.343-38.542-7.343c-19.232,0-36.623,3.408-52.175,10.228c-15.563,6.817-28.934,16.254-40.119,28.316
			c-11.19,12.06-19.841,26.138-25.953,42.213c-6.123,16.083-9.177,33.388-9.177,51.915c0,19.928,3.053,38.282,9.177,55.061
			c6.112,16.78,14.764,31.292,25.953,43.524c11.185,12.241,24.556,21.852,40.119,28.842c15.552,6.996,32.944,10.488,52.175,10.488
			c15.026,0,29.628-3.582,43.787-10.751c14.16-7.161,27.352-18.617,39.593-34.347l54.535,38.804
			c-16.782,23.073-37.233,39.856-61.352,50.341c-24.125,10.488-49.821,15.734-77.089,15.734c-28.666,0-54.977-4.639-78.917-13.897
			c-23.952-9.258-44.576-22.369-61.878-39.33c-17.308-16.953-30.858-37.314-40.644-61.092c-9.792-23.77-14.68-50.16-14.68-79.183
			c0-29.709,4.888-56.716,14.68-81.017c9.786-24.296,23.336-45.009,40.644-62.141c17.302-17.126,37.927-30.324,61.878-39.593
			c23.94-9.258,50.252-13.897,78.917-13.897c25.171,0,48.507,4.46,70.009,13.374c21.497,8.914,41.505,24.041,60.044,45.359
			L1809.627,970.071z"/>
		<path style="fill:#322A28;" d="M1913.978,883.022h66.072V1030.9h173.577V883.022h66.072v371.271h-66.072v-163.612H1980.05v163.612
			h-66.072V883.022z"/>
		<path style="fill:#322A28;" d="M2302.554,883.022h87.574l179.868,275.831h1.046V883.022h66.072v371.271h-83.9l-183.537-284.745
			h-1.051v284.745h-66.072V883.022z"/>
		<path style="fill:#322A28;" d="M2718.392,883.022h66.072v371.271h-66.072V883.022z"/>
		<path style="fill:#322A28;" d="M3120.602,970.071c-13.634-14.682-26.832-24.466-39.593-29.365
			c-12.767-4.891-25.612-7.343-38.542-7.343c-19.231,0-36.623,3.408-52.175,10.228c-15.563,6.817-28.934,16.254-40.119,28.316
			c-11.19,12.06-19.841,26.138-25.954,42.213c-6.124,16.083-9.177,33.388-9.177,51.915c0,19.928,3.053,38.282,9.177,55.061
			c6.112,16.78,14.763,31.292,25.954,43.524c11.184,12.241,24.555,21.852,40.119,28.842c15.552,6.996,32.944,10.488,52.175,10.488
			c15.027,0,29.628-3.582,43.787-10.751c14.159-7.161,27.352-18.617,39.593-34.347l54.535,38.804
			c-16.782,23.073-37.233,39.856-61.352,50.341c-24.125,10.488-49.821,15.734-77.089,15.734c-28.666,0-54.977-4.639-78.918-13.897
			c-23.951-9.258-44.576-22.369-61.878-39.33c-17.308-16.953-30.858-37.314-40.645-61.092c-9.792-23.77-14.679-50.16-14.679-79.183
			c0-29.709,4.887-56.716,14.679-81.017c9.786-24.296,23.336-45.009,40.645-62.141c17.302-17.126,37.927-30.324,61.878-39.593
			c23.94-9.258,50.252-13.897,78.918-13.897c25.17,0,48.507,4.46,70.009,13.374c21.497,8.914,41.506,24.041,60.044,45.359
			L3120.602,970.071z"/>
		<path style="fill:#322A28;" d="M3345.041,883.022h57.158l159.938,371.271h-75.512l-34.61-84.952h-160.989l-33.559,84.952h-73.94
			L3345.041,883.022z M3428.941,1112.706l-57.158-151.024l-58.209,151.024H3428.941z"/>
		<path style="fill:#322A28;" d="M3603.558,883.022h66.072v311.49h157.841v59.781h-223.913V883.022z"/>
		<path style="fill:#322A28;" d="M1396.942,1509.285c-7.001-10.139-16.346-17.565-28.056-22.285
			c-11.716-4.72-24.041-7.08-36.97-7.08c-7.695,0-15.127,0.872-22.285,2.623c-7.169,1.75-13.634,4.547-19.405,8.388
			c-5.766,3.853-10.407,8.83-13.897,14.942c-3.495,6.124-5.24,13.377-5.24,21.765c0,12.583,4.362,22.207,13.108,28.839
			c8.735,6.649,19.573,12.415,32.513,17.308c12.929,4.899,27.089,9.619,42.473,14.159c15.379,4.547,29.538,10.838,42.479,18.874
			c12.929,8.047,23.767,18.706,32.513,31.993c8.729,13.287,13.108,30.936,13.108,52.958c0,19.931-3.674,37.323-11.011,52.181
			c-7.343,14.864-17.224,27.184-29.628,36.97c-12.415,9.792-26.837,17.129-43.267,22.022c-16.436,4.893-33.738,7.343-51.913,7.343
			c-23.073,0-45.28-3.853-66.598-11.537c-21.329-7.684-39.682-20.624-55.061-38.805l49.816-48.244
			c8.042,12.241,18.617,21.759,31.725,28.576c13.114,6.817,27.01,10.228,41.69,10.228c7.689,0,15.379-1.051,23.074-3.148
			c7.689-2.097,14.685-5.24,20.976-9.44c6.291-4.194,11.358-9.518,15.205-15.994c3.847-6.465,5.771-13.897,5.771-22.285
			c0-13.634-4.373-24.119-13.108-31.462c-8.746-7.343-19.584-13.544-32.513-18.617c-12.94-5.067-27.1-9.876-42.479-14.422
			c-15.384-4.541-29.544-10.748-42.473-18.617c-12.94-7.863-23.778-18.354-32.513-31.462c-8.741-13.108-13.108-30.679-13.108-52.701
			c0-19.22,3.931-35.829,11.8-49.816c7.863-13.981,18.169-25.61,30.936-34.876c12.756-9.261,27.352-16.167,43.787-20.714
			c16.43-4.541,33.207-6.817,50.341-6.817c19.573,0,38.542,2.975,56.895,8.914c18.354,5.95,34.873,15.731,49.558,29.365
			L1396.942,1509.285z"/>
		<path style="fill:#322A28;" d="M1813.306,1664.503c0,22.38-3.853,42.568-11.537,60.57c-7.695,18.007-18.186,33.296-31.468,45.884
			c-13.287,12.588-29.018,22.285-47.193,29.102c-18.18,6.817-37.938,10.228-59.255,10.228c-21.329,0-41.086-3.411-59.261-10.228
			c-18.18-6.817-34.001-16.514-47.456-29.102c-13.461-12.588-23.952-27.877-31.462-45.884c-7.521-18.001-11.274-38.189-11.274-60.57
			v-234.927h66.072v232.83c0,9.099,1.393,18.617,4.194,28.582c2.796,9.96,7.427,19.137,13.897,27.531
			c6.465,8.388,15.026,15.295,25.696,20.714c10.659,5.425,23.856,8.125,39.593,8.125c15.731,0,28.923-2.701,39.587-8.125
			c10.664-5.419,19.226-12.325,25.696-20.714c6.465-8.394,11.095-17.571,13.897-27.531c2.796-9.965,4.194-19.483,4.194-28.582
			v-232.83h66.078V1664.503z"/>
		<path style="fill:#322A28;" d="M1894.578,1429.576h124.807c17.828,0,35.041,1.75,51.65,5.24
			c16.603,3.501,31.205,9.361,43.787,17.571c12.588,8.215,22.632,19.229,30.153,33.036c7.516,13.818,11.274,31.031,11.274,51.655
			c0,23.426-4.021,42.305-12.062,56.633c-8.047,14.339-18.874,25.433-32.513,33.302c-13.634,7.863-29.454,13.198-47.456,15.994
			c-18.007,2.802-36.797,4.194-56.37,4.194h-47.198v153.646h-66.072V1429.576z M2000.506,1590.568c9.44,0,19.22-0.347,29.365-1.051
			c10.139-0.699,19.483-2.796,28.056-6.291c8.562-3.49,15.552-8.735,20.977-15.731c5.413-6.99,8.125-16.782,8.125-29.37
			c0-11.537-2.449-20.714-7.343-27.531c-4.899-6.817-11.19-12.057-18.874-15.731c-7.695-3.668-16.257-6.028-25.696-7.08
			c-9.44-1.046-18.533-1.571-27.268-1.571h-47.198v104.357H2000.506z"/>
		<path style="fill:#322A28;" d="M2214.979,1429.576h124.807c17.828,0,35.041,1.75,51.65,5.24
			c16.603,3.501,31.205,9.361,43.787,17.571c12.588,8.215,22.632,19.229,30.153,33.036c7.516,13.818,11.274,31.031,11.274,51.655
			c0,23.426-4.021,42.305-12.063,56.633c-8.047,14.339-18.874,25.433-32.513,33.302c-13.634,7.863-29.454,13.198-47.456,15.994
			c-18.007,2.802-36.797,4.194-56.37,4.194h-47.198v153.646h-66.072V1429.576z M2320.907,1590.568c9.44,0,19.22-0.347,29.365-1.051
			c10.139-0.699,19.483-2.796,28.056-6.291c8.562-3.49,15.552-8.735,20.976-15.731c5.413-6.99,8.125-16.782,8.125-29.37
			c0-11.537-2.449-20.714-7.343-27.531c-4.899-6.817-11.19-12.057-18.874-15.731c-7.695-3.668-16.257-6.028-25.696-7.08
			c-9.44-1.046-18.533-1.571-27.268-1.571h-47.198v104.357H2320.907z"/>
		<path style="fill:#322A28;" d="M2515.45,1616.784c0-29.711,4.888-56.716,14.68-81.02c9.786-24.293,23.336-45.006,40.644-62.141
			c17.302-17.126,37.927-30.324,61.878-39.59c23.94-9.261,50.252-13.897,78.917-13.897c29.012-0.347,55.587,3.931,79.712,12.845
			c24.119,8.914,44.917,21.944,62.398,39.07c17.481,17.135,31.115,37.759,40.907,61.878c9.781,24.125,14.68,51.046,14.68,80.757
			c0,29.024-4.899,55.413-14.68,79.186c-9.792,23.778-23.426,44.229-40.907,61.352c-17.481,17.135-38.279,30.506-62.398,40.113
			c-24.125,9.613-50.699,14.596-79.712,14.948c-28.666,0-54.977-4.636-78.917-13.897c-23.952-9.261-44.576-22.369-61.878-39.33
			c-17.308-16.95-30.858-37.311-40.644-61.089C2520.338,1672.198,2515.45,1645.808,2515.45,1616.784z M2584.671,1612.59
			c0,19.925,3.053,38.279,9.177,55.061c6.112,16.782,14.764,31.294,25.954,43.524c11.185,12.241,24.555,21.854,40.119,28.839
			c15.552,7.001,32.944,10.491,52.176,10.491c19.22,0,36.707-3.49,52.438-10.491c15.731-6.985,29.186-16.598,40.381-28.839
			c11.185-12.23,19.836-26.742,25.954-43.524c6.112-16.782,9.177-35.136,9.177-55.061c0-18.527-3.064-35.829-9.177-51.913
			c-6.118-16.078-14.769-30.153-25.954-42.216c-11.196-12.063-24.651-21.502-40.381-28.319
			c-15.731-6.817-33.218-10.223-52.438-10.223c-19.232,0-36.624,3.406-52.176,10.223c-15.563,6.817-28.934,16.257-40.119,28.319
			c-11.19,12.063-19.841,26.138-25.954,42.216C2587.724,1576.76,2584.671,1594.063,2584.671,1612.59z"/>
		<path style="fill:#322A28;" d="M2972.19,1429.576h129.001c17.828,0,35.041,1.661,51.65,4.977
			c16.603,3.327,31.378,9.009,44.313,17.045c12.929,8.047,23.247,18.882,30.942,32.516c7.684,13.634,11.537,30.936,11.537,51.913
			c0,26.927-7.432,49.474-22.291,67.649c-14.864,18.18-36.098,29.192-63.712,33.033l98.585,164.138h-79.706l-86.003-157.321h-48.244
			v157.321h-66.072V1429.576z M3089.655,1586.894c9.44,0,18.879-0.436,28.313-1.308c9.439-0.872,18.096-2.969,25.959-6.297
			c7.868-3.316,14.243-8.388,19.142-15.205c4.893-6.817,7.343-16.34,7.343-28.576c0-10.832-2.281-19.578-6.817-26.222
			c-4.552-6.638-10.491-11.621-17.834-14.948c-7.337-3.316-15.468-5.503-24.382-6.554c-8.914-1.046-17.565-1.571-25.959-1.571
			h-57.158v100.682H3089.655z"/>
		<path style="fill:#322A28;" d="M3369.16,1489.359h-113.796v-59.784h293.665v59.784h-113.796v311.487h-66.072V1489.359z"/>
	</g>
	<g>
		<path style="fill:#FFFFFF;" d="M1142.332,1488.93c0,13.727-0.703,27.289-2.038,40.665
			c-13.375,131.972-91.05,244.97-201.214,307.115c-57.858,32.653-124.664,51.276-195.827,51.276
			c-72.357,0-140.217-19.255-198.731-52.915c-119.721-68.891-200.324-198.099-200.324-346.14
			c0-202.339,150.571-369.517,345.788-395.542c0.75-0.117,1.499-0.211,2.249-0.305c0.352-0.047,0.703-0.094,1.055-0.141
			c16.374-2.038,33.051-3.092,49.964-3.092c2.718,0,5.435,0.024,8.128,0.094c27.805,0.539,54.93,3.935,81.071,9.908
			c2.53,0.586,5.013,1.171,7.519,1.804c153.874,38.299,272.447,165.914,297.464,324.613
			C1140.668,1446.696,1142.332,1467.614,1142.332,1488.93z"/>
		<path style="fill:#FFFFFF;" d="M1142.332,1488.93c0,13.727-0.703,27.289-2.038,40.665
			c-13.375,131.972-91.05,244.97-201.214,307.115c-57.858,32.653-124.664,51.276-195.827,51.276
			c-72.357,0-140.217-19.255-198.731-52.915c-119.721-68.891-200.324-198.099-200.324-346.14
			c0-202.339,150.571-369.517,345.788-395.542c0.75-0.117,1.499-0.211,2.249-0.305c0.352-0.047,0.703-0.094,1.055-0.141
			c16.374-2.038,33.051-3.092,49.964-3.092c2.718,0,5.435,0.024,8.128,0.094c27.805,0.539,54.93,3.935,81.071,9.908
			c2.53,0.586,5.013,1.171,7.519,1.804c153.874,38.299,272.447,165.914,297.464,324.613
			C1140.668,1446.696,1142.332,1467.614,1142.332,1488.93z"/>
		<path style="fill:none;stroke:#FFFFFF;stroke-width:3.2564;stroke-miterlimit:10;" d="M1181.848,1495.178
			c0,13.727-0.703,27.289-2.038,40.665c-13.375,131.972-91.05,244.97-201.214,307.115c-57.858,32.653-124.664,51.276-195.827,51.276
			c-72.357,0-140.217-19.255-198.731-52.915c-119.721-68.891-200.324-198.099-200.324-346.14
			c0-202.339,150.571-369.517,345.788-395.542c0.75-0.117,1.5-0.211,2.249-0.305c0.352-0.047,0.703-0.094,1.055-0.141
			c16.373-2.038,33.051-3.092,49.964-3.092c2.717,0,5.435,0.023,8.128,0.094c27.805,0.539,54.93,3.935,81.072,9.908
			c2.53,0.586,5.013,1.171,7.519,1.804c153.874,38.298,272.447,165.914,297.464,324.613
			C1180.185,1452.944,1181.848,1473.862,1181.848,1495.178z"/>
		<path style="fill:#E5F0F8;" d="M1120.68,1488.929c0,12.982-0.665,25.809-1.928,38.458
			c-12.65,124.812-86.11,231.679-190.297,290.452c-54.719,30.882-117.9,48.494-185.202,48.494
			c-68.431,0-132.609-18.21-187.948-50.044c-113.226-65.153-189.455-187.351-189.455-327.36
			c0-191.36,142.402-349.469,327.027-374.081c0.709-0.111,1.418-0.199,2.127-0.288c0.333-0.044,0.665-0.089,0.997-0.133
			c15.485-1.927,31.258-2.924,47.253-2.924c2.57,0,5.14,0.022,7.687,0.089c26.296,0.51,51.95,3.722,76.673,9.371
			c2.393,0.554,4.741,1.108,7.111,1.706c145.526,36.221,257.665,156.912,281.325,307
			C1119.107,1448.987,1120.68,1468.77,1120.68,1488.929z"/>
		<g>
			
				<ellipse transform="matrix(0.8936 -0.4488 0.4488 0.8936 -464.3706 443.3603)" style="fill:#403534;" cx="703.16" cy="1201.35" rx="49.788" ry="58.889"/>
			<path style="fill:#E7888B;" d="M928.455,1817.84c-54.719,30.882-117.9,48.494-185.202,48.494
				c-68.431,0-132.609-18.21-187.948-50.044c10.212-41.227,25.498-75.543,44.439-101.529c8.529-11.675,17.767-21.666,27.647-29.841
				h254.453C909.049,1728.318,923.338,1769.28,928.455,1817.84z"/>
			<path style="fill:#2EC6FC;" d="M716.292,1260.551l-98.872,29.114l9.971,395.251h254.453c0,0,17.143-339.503,25.076-394.421
				l-101.511-29.667L716.292,1260.551z"/>
			<path style="fill:#FDAE97;" d="M713.784,1258.521l0.071,0.071c1.141,1.997,20.401,34.453,56.851,31.742
				c32.242-2.425,34.667-29.531,34.667-29.531V1137.33l-91.14,2.921L713.784,1258.521z"/>
			<polygon style="fill:#FFFFFF;" points="714.804,1252.948 761.672,1289.062 749.093,1326.383 703.018,1261.609 			"/>
			<polygon style="fill:#FFFFFF;" points="805.373,1252.948 761.672,1289.062 776.369,1326.383 812.398,1262.871 			"/>
			<path style="fill:#2EC6FC;" d="M525.701,1631.49l0.655,0.213c28.79,9.344,59.99-6.566,69.334-35.356l76.134-234.578
				c9.344-28.79-6.566-59.99-35.356-69.334l-0.655-0.213c-28.79-9.344-59.99,6.566-69.334,35.356l-76.134,234.578
				C481.001,1590.946,496.912,1622.146,525.701,1631.49z"/>
			<path style="fill:#FDAE97;" d="M886.383,1653.247l-55.563-24.947l-33.162,15.397l-7.896,28.819c0,0,3.423,2.977,8.328-0.701
				c4.474-3.356,11.806-14.725,11.806-14.725l15.643-1.944l6.465,4.131l-27.635,13.634c0,0-7.986,19.674-6.271,27.001
				c0.447,1.909,1.107,5.232,6.011,2.78c2.022-1.011,5.984-3.922,5.984-3.922s0.139,6.499,1.332,8.198
				c1.32,1.88,6.951,3.861,8.958-2.047c1.586-4.671,2.675-16.72,2.675-16.72l24.342,6.818l-16.285,7.716l-2.221,21.615
				c0,0,10.933,4.954,13.472-11.368c0,0,10.955-7.698,37.011,1.48c26.056,9.179,41.022,5.437,58.263-7.201L886.383,1653.247z"/>
			<polyline style="fill:none;stroke:#332B27;stroke-width:1.8247;stroke-miterlimit:10;" points="810.093,1698.769 
				813.942,1678.635 839.406,1674.194 			"/>
			<polygon style="fill:#E89780;" points="805.373,1246.904 759.579,1209.77 805.373,1213.913 			"/>
			<path style="fill:#2EC6FC;" d="M874.22,1645.563l156.059-175.089c19.159-20.242,53.599-19.114,76.615,2.559
				c22.955,21.702,26.079,56.072,6.949,76.375l-167.891,171.744L874.22,1645.563z"/>
			<path style="fill:#2EC6FC;" d="M1108.825,1550.637l-0.475,0.499c-20.868,21.925-55.88,22.791-77.805,1.923l-178.645-170.027
				c-21.925-20.867-22.79-55.88-1.923-77.805l0.475-0.499c20.867-21.925,55.88-22.79,77.805-1.923l178.645,170.027
				C1128.828,1493.7,1129.693,1528.712,1108.825,1550.637z"/>
			<path style="fill:#403534;" d="M836.188,1115.719c0,0,23.786-31.858-8.216-51.735L836.188,1115.719z"/>
			<path style="fill:#FDAE97;" d="M742.636,1198.677c21.712,21.827,51.99,29.708,73.457,22.19
				c21.466-7.443,25.807-36.371,25.029-55.659c0-0.074,0-0.074-0.001-0.148c-0.171-3.99-0.426-9.607-0.685-15.962
				c-0.957-24.905-2.356-61.782-2.356-61.782c0.2-19.242-40.936-73.384-103.754-33.176
				C671.509,1094.422,720.924,1176.849,742.636,1198.677z"/>
			<path style="fill:#403534;" d="M838.348,1079.584c0,0-6.321,21.472-40.419,28.022c-34.099,6.55-68.654,21.156-73.37,54.072
				c-4.716,32.916-20.383,48.091-20.383,48.091s5.884-41.019-5.405-80.002c-4.379-15.121-4.002-44.514,15.154-64.938
				C744.152,1032.599,804.33,1017.826,838.348,1079.584z"/>
			<path style="fill:#FDAE97;" d="M731.539,1156.161c4.006,11.34,4.073,18.68-4.83,21.825c-8.903,3.145-21.427-1.418-25.434-12.758
				s-0.036-23.082,8.867-26.228C719.044,1135.856,727.532,1144.822,731.539,1156.161z"/>
			
				<path style="fill:none;stroke:#E89780;stroke-width:1.4936;stroke-linecap:round;stroke-linejoin:round;stroke-miterlimit:10;" d="
				M712.593,1158.893c7.158-1.436,11.965,2.785,11.965,2.785c-1.517-12.139-15.88-11.14-15.88-11.14"/>
			<path style="fill:#332B27;" d="M784.32,1138.499c0.073,4.646,2.569,8.374,5.575,8.327c3.005-0.047,5.383-3.852,5.309-8.498
				c-0.073-4.646-2.569-8.374-5.575-8.326C786.623,1130.049,784.246,1133.853,784.32,1138.499z"/>
			<path style="fill:#332B27;" d="M823.956,1134.267c0.073,4.646,2.569,8.374,5.575,8.326c3.006-0.047,5.383-3.852,5.309-8.498
				c-0.073-4.646-2.569-8.374-5.575-8.327C826.26,1125.816,823.883,1129.621,823.956,1134.267z"/>
			<path style="fill:none;stroke:#332B27;stroke-width:2.2175;stroke-miterlimit:10;" d="M773.589,1129.332
				c0,0,9.144-11.725,20.081-7.709"/>
			<path style="fill:none;stroke:#332B27;stroke-width:2.2175;stroke-miterlimit:10;" d="M824.194,1118.751
				c0,0,6.592-2.013,14.582,4.472"/>
			<path style="fill:none;stroke:#332B27;stroke-width:2.2175;stroke-miterlimit:10;" d="M809.932,1135.154
				c0,0,0.896,23.011,14.45,25.614c0,0-4.236,3.979-9.596,5.674"/>
			<path style="fill:none;stroke:#332B27;stroke-width:2.2175;stroke-miterlimit:10;" d="M817.376,1185.58
				c0,0-14.911,6.565-25.97-9.815"/>
			<path style="fill:#E89780;" d="M760.745,1153.512c-1.352,4.65,4.943,10.568,14.061,13.219c9.117,2.651,17.604,1.031,18.956-3.619
				c1.352-4.65-4.943-10.568-14.06-13.219C770.583,1147.242,762.096,1148.863,760.745,1153.512z"/>
			<path style="fill:#E89780;" d="M832.002,1160.309c0.83,2.878,4.388,4.557,9.12,4.751c-0.171-3.99-0.426-9.607-0.685-15.962
				C834.468,1152.237,830.872,1156.693,832.002,1160.309z"/>
			<path style="fill:none;stroke:#FFFFFF;stroke-width:1.9626;stroke-miterlimit:10;" d="M730.26,1178.903
				c0.025,4.27-3.416,7.752-7.686,7.777c-4.27,0.025-7.752-3.417-7.777-7.686c-0.025-4.27,3.416-7.752,7.686-7.776
				C726.754,1171.192,730.235,1174.633,730.26,1178.903z"/>
			<path style="fill:none;stroke:#FFFFFF;stroke-width:2.2153;stroke-miterlimit:10;" d="M640.57,1444.222
				c0,0,21.165,37.804,77.32,23.681"/>
			<path style="fill:none;stroke:#FFFFFF;stroke-width:2.2153;stroke-miterlimit:10;" d="M793.161,1463.472
				c0,0,55.557,30.042,85.427-10.261"/>
			<path style="fill:#FDAE97;" d="M249.553,1390.899c0,0-11.948-19.463-7.841-24.552c4.107-5.091,5.873-0.344,5.873-0.344
				s-3.166-14.17,1.422-17.646c4.589-3.475,8.59,4.647,8.59,4.647s1.47-9.225,7.779-9.874c6.309-0.649,19.208,19.057,26.516,27.073
				c7.308,8.016,25.826,25.346,29.569,24.933c3.744-0.412-14.963-28.406-10.114-33.365c4.849-4.959,39.031,28.969,49.991,42.751
				c4.714,5.928,11.183,12.3,17.031,17.646l-34.194,48.027c-8.751-4.559-50.371-26.373-66.665-37.364
				c-18.254-12.312-36.775-36.144-34.186-40.43C245.912,1388.117,249.553,1390.899,249.553,1390.899z"/>
			<path style="fill:#2EC6FC;" d="M579.307,1538.346c21.141,16.299,23.331,49.231,4.866,73.181
				c-18.465,23.952-50.87,30.212-72.011,13.914l-175.737-151.317l41.942-58.274L579.307,1538.346z"/>
		</g>
		<polygon style="fill:#FFFFFF;" points="635.094,1866.333 789.838,1993.164 771.967,1871.7 		"/>
	</g>
	<g>
		<g>
			<path style="fill:#F2BB16;" d="M266.034,1226.625v-33.167c0-9.787,0.726-17.943,2.178-24.465
				c1.44-6.526,3.618-12.413,6.523-17.673c2.898-5.251,6.793-10.33,11.69-15.224c4.891-4.894,10.957-10.781,18.212-17.669
				c5.797-5.437,11.6-10.961,17.402-16.583c5.791-5.617,11.048-11.417,15.764-17.399c4.711-5.98,8.605-12.317,11.69-19.029
				c3.078-6.703,4.621-14.222,4.621-22.563c0-8.335-1.542-16.04-4.621-23.109c-3.084-7.069-7.159-13.133-12.23-18.216
				c-5.083-5.071-11.15-9.055-18.219-11.96c-7.069-2.898-14.594-4.351-22.563-4.351c-17.763,0-32.171,5.623-43.224,16.856
				c-11.06,11.24-17.672,25.918-19.845,44.04l-55.46-5.437c4.705-31.537,17.853-56.276,39.419-74.218
				c21.561-17.942,48.295-26.914,80.195-26.914c15.224,0,29.446,2.268,42.684,6.796c13.226,4.537,24.741,11.063,34.523,19.575
				c9.787,8.521,17.487,19.029,23.109,31.534c5.617,12.506,8.431,26.737,8.431,42.681c0,13.781-1.998,25.828-5.983,36.158
				c-3.997,10.33-9.607,20.034-16.856,29.089l-32.62,33.71l-5.437,4.894c-5.803,5.437-10.423,10.057-13.868,13.865
				c-3.451,3.805-6.169,7.798-8.155,11.96c-1.998,4.174-3.354,8.794-4.074,13.865c-0.732,5.083-1.092,11.42-1.092,19.032v23.922
				H266.034z M255.707,1301.656c0-9.787,3.534-18.213,10.603-25.281c7.063-7.069,15.494-10.604,25.281-10.604
				c9.787,0,18.213,3.535,25.282,10.604s10.603,15.494,10.603,25.281s-3.534,18.216-10.603,25.285
				c-7.069,7.066-15.494,10.6-25.282,10.6c-9.787,0-18.218-3.534-25.281-10.6C259.241,1319.871,255.707,1311.443,255.707,1301.656z"
				/>
		</g>
		<polygon style="fill:#F2BB16;" points="215.331,1046.114 233.414,1046.114 228.069,1033.064 204.722,1033.064 		"/>
		<polygon style="fill:#F2BB16;" points="273.509,1337.541 291.592,1337.541 290.521,1324.898 275.2,1324.898 		"/>
		<polygon style="fill:#F2BB16;" points="273.509,1265.771 291.592,1265.771 290.959,1276.599 276.951,1276.599 		"/>
		<g>
			<path style="fill:#F9E181;" d="M247.951,1226.625v-33.167c0-9.787,0.726-17.943,2.178-24.465
				c1.44-6.526,3.618-12.413,6.523-17.673c2.898-5.251,6.793-10.33,11.69-15.224c4.891-4.894,10.957-10.781,18.212-17.669
				c5.797-5.437,11.6-10.961,17.402-16.583c5.791-5.617,11.048-11.417,15.764-17.399c4.711-5.98,8.605-12.317,11.69-19.029
				c3.078-6.703,4.621-14.222,4.621-22.563c0-8.335-1.542-16.04-4.621-23.109c-3.085-7.069-7.159-13.133-12.23-18.216
				c-5.083-5.071-11.15-9.055-18.219-11.96c-7.069-2.898-14.594-4.351-22.563-4.351c-17.762,0-32.17,5.623-43.224,16.856
				c-11.06,11.24-17.672,25.918-19.845,44.04l-55.46-5.437c4.705-31.537,17.853-56.276,39.42-74.218
				c21.561-17.942,48.295-26.914,80.195-26.914c15.224,0,29.446,2.268,42.684,6.796c13.226,4.537,24.741,11.063,34.523,19.575
				c9.787,8.521,17.486,19.029,23.109,31.534c5.617,12.506,8.431,26.737,8.431,42.681c0,13.781-1.998,25.828-5.983,36.158
				c-3.997,10.33-9.607,20.034-16.856,29.089l-32.621,33.71l-5.437,4.894c-5.803,5.437-10.423,10.057-13.868,13.865
				c-3.451,3.805-6.169,7.798-8.155,11.96c-1.998,4.174-3.354,8.794-4.074,13.865c-0.732,5.083-1.092,11.42-1.092,19.032v23.922
				H247.951z M237.624,1301.656c0-9.787,3.535-18.213,10.603-25.281c7.063-7.069,15.494-10.604,25.281-10.604
				c9.787,0,18.213,3.535,25.282,10.604c7.069,7.069,10.603,15.494,10.603,25.281s-3.534,18.216-10.603,25.285
				c-7.069,7.066-15.494,10.6-25.282,10.6c-9.787,0-18.218-3.534-25.281-10.6C241.158,1319.871,237.624,1311.443,237.624,1301.656z"
				/>
		</g>
	</g>
	<g>
		<g>
			<path style="fill:#F2BB16;" d="M446.693,1300.751c0-10.025,3.629-18.667,10.887-25.902c7.213-7.258,15.877-10.887,25.903-10.887
				c10.025,0,18.69,3.629,25.902,10.887c7.258,7.235,10.887,15.877,10.887,25.902c0,10.048-3.629,18.69-10.887,25.925
				c-7.213,7.258-15.877,10.865-25.902,10.865c-10.025,0-18.69-3.606-25.903-10.865
				C450.322,1319.441,446.693,1310.799,446.693,1300.751z M509.113,1220.48H455.63V939.545h53.484V1220.48z"/>
		</g>
		<rect x="465.399" y="1263.961" style="fill:#F2BB16;" width="18.084" height="73.579"/>
		<g>
			<path style="fill:#F9E181;" d="M428.609,1300.751c0-10.025,3.629-18.667,10.887-25.902c7.213-7.258,15.877-10.887,25.903-10.887
				c10.025,0,18.69,3.629,25.902,10.887c7.258,7.235,10.887,15.877,10.887,25.902c0,10.048-3.629,18.69-10.887,25.925
				c-7.213,7.258-15.877,10.865-25.903,10.865c-10.025,0-18.69-3.606-25.902-10.865
				C432.238,1319.441,428.609,1310.799,428.609,1300.751z M491.029,1220.48h-53.483V939.545h53.483V1220.48z"/>
		</g>
	</g>
	<g>
		<polygon style="fill:#FDAE97;" points="3870.696,1358.146 3929.005,1357.155 3925.951,1295.929 3924.493,1266.651 
			3924.41,1265.193 3878.786,1246.013 3877.3,1266.706 3876.2,1281.785 		"/>
		<path style="fill:#088CFC;" d="M3984.729,1547.666l24.52,202.976c0.77,5.131,0.746,10.465-0.301,15.848
			c-4.927,25.344-29.466,41.896-54.81,36.97c-25.344-4.926-35.043-24.496-39.596-53.597
			c-8.738-55.863-39.257-223.471-39.257-223.471L3984.729,1547.666z"/>
		<polygon style="fill:#088CFC;" points="3825.739,1537.45 3915.81,1543.493 3915.361,1643.281 3904.671,1659.091 3894.76,1755.291 
			3803.587,1748.003 		"/>
		<path style="fill:#E7888B;" d="M4039.424,1509.251l-0.339,0.142c-14.884,6.242-32.168-0.828-38.411-15.711l-50.862-121.271
			c-6.242-14.884,0.828-32.168,15.711-38.411l0.339-0.142c14.884-6.242,32.168,0.828,38.411,15.711l50.862,121.271
			C4061.378,1485.724,4054.308,1503.008,4039.424,1509.251z"/>
		<path style="fill:#E7888B;" d="M3797.758,1472.783c0.323,16.839-11.63,30.92-26.491,31.163l-76.648-0.525l-27.138-0.242
			l-28.282-0.187l-2.665-27.327l-1.885-19.398l-0.202-1.884l29.386-2.518l26.936-2.343l79.3-6.866
			C3784.929,1442.415,3797.435,1455.943,3797.758,1472.783z"/>
		<path style="fill:#FDAE97;" d="M3899.094,1332.541c-21.395,0.471-30.506-10.163-33.255-14.341l8-3.615l52.907-2.662l6.356,2.035
			C3930.42,1318.952,3920.952,1332.059,3899.094,1332.541z"/>
		<path style="fill:#E7888B;" d="M3823.168,1465.651l-1.267,87.494h164.697l-1.952-220.581l-56.518-20.422
			c-0.633,1.161-1.319,2.375-2.164,3.641l-0.211,0.264c-3.061,3.905-8.918,7.599-25.33,7.968
			c-13.667,0.317-20.369-1.583-24.169-4.063l-0.053-0.053c-2.058-1.372-3.271-3.008-4.221-4.485l-53.352,11.768l3.589,111.346
			L3823.168,1465.651z"/>
		<path style="fill:#088CFC;" d="M4026.324,1956.665l-84.722-0.059l-25.538-197.157c-2.667-25.693,15.959-48.7,41.619-51.405
			c25.694-2.666,48.665,15.957,51.369,41.617c0.243,2.23,0.272,4.409,0.19,6.617l14.749,173.049L4026.324,1956.665
			L4026.324,1956.665z"/>
		<path style="fill:#E7888B;" d="M3754.323,1499.403L3754.323,1499.403c14.603,7.443,32.641,1.586,40.084-13.017l59.817-117.353
			c7.443-14.603,1.585-32.641-13.017-40.084l0,0c-14.603-7.443-32.641-1.585-40.084,13.017l-59.817,117.353
			C3733.862,1473.922,3739.72,1491.959,3754.323,1499.403z"/>
		<path style="fill:#D6EAFF;" d="M3876.255,1319.952l24.169,38.206l25.33-42.111c-3.061,3.905-8.918,7.599-25.33,7.968
			C3886.757,1324.332,3880.055,1322.432,3876.255,1319.952z"/>
		<path style="fill:#088CFC;" d="M3895.085,1751.745l-21.757,204.919h-83.234l13.346-206.041c-0.109-2.172,0.507-4.597,0.688-6.841
			c2.28-25.734,22.73-44.953,48.465-42.709C3878.291,1703.353,3897.33,1726.011,3895.085,1751.745z"/>
		<polygon style="fill:#EA9D85;" points="3874.592,1304.099 3907.368,1280.2 3876.2,1281.785 		"/>
		<path style="fill:#FDAE97;" d="M3879.461,1212.061c0,0-5.193,18.895-8.877,32.298l-3.045,11.078
			c-2.406,8.753-3.519,22.411,5.506,28.123c8.993,5.702,23.653,5.32,35.898-2.327c12.254-7.679,45.895-48.178,21.49-73.261
			C3905.997,1182.879,3881.382,1207.726,3879.461,1212.061z"/>
		<path style="fill:#322A28;" d="M3925.094,1278.725c0,0-15.833-24.344-7.205-38.204c8.627-13.86,0-17.341-6.055-16.281
			c-6.054,1.059-16.583,0.757-20.854-0.908c0,0,12.832,0.303,18.281-2.876c0,0-25.295,2.073-30.811-4.715l-1.356,4.935
			c0,0-9.115-21.467,4.591-26.462c13.707-4.995,19.402,0.663,19.402,0.663s-4.361-8.779,1.906-10.444
			c6.267-1.665,12.019,11.049,12.019,11.049s8.779-10.898,17.861-0.151c9.082,10.747,5.298,20.585,5.298,20.585
			s10.595,8.779,5.449,22.553S3926.245,1265.25,3925.094,1278.725z"/>
		<g>
			<path style="fill:#FDAE97;" d="M3917.657,1261.069c-4.888,4.412-6.836,7.928-3.372,11.765c3.464,3.837,10.683,4.91,15.571,0.498
				c4.888-4.412,6.042-11.1,2.578-14.937C3928.97,1254.558,3922.545,1256.657,3917.657,1261.069z"/>
		</g>
		<path style="fill:#332B27;" d="M3898.872,1243.832c-0.558,2.03-2.075,3.384-3.388,3.023c-1.313-0.361-1.926-2.3-1.368-4.33
			c0.558-2.03,2.075-3.384,3.389-3.023C3898.818,1239.863,3899.43,1241.802,3898.872,1243.832z"/>
		<path style="fill:#332B27;" d="M3874.314,1237.083c-0.558,2.03,0.054,3.969,1.368,4.33s2.83-0.992,3.388-3.023
			s-0.054-3.969-1.368-4.33C3876.389,1233.699,3874.872,1235.052,3874.314,1237.083z"/>
		<path style="fill:#E89780;" d="M3891.408,1256.2c0.112,2.037,3.486,3.508,7.536,3.285c4.05-0.223,7.243-2.055,7.131-4.092
			c-0.112-2.037-3.486-3.508-7.536-3.285C3894.488,1252.331,3891.296,1254.163,3891.408,1256.2z"/>
		<path style="fill:#E89780;" d="M3870.585,1244.359l-1.979,7.203c2.938,1.19,5.656,1.033,6.511-0.434
			C3876.083,1249.379,3874.065,1246.358,3870.585,1244.359z"/>
		
			<path style="fill:none;stroke:#EA9D85;stroke-width:1.5211;stroke-linecap:round;stroke-linejoin:round;stroke-miterlimit:10;" d="
			M3926.166,1268.222c-3.144-1.537-6.042-1.661-6.042-1.661c4.475-4.718,8.614-2.888,8.614-2.888"/>
		<path style="fill:none;stroke:#332B27;stroke-width:0.973;stroke-miterlimit:10;" d="M3891.008,1266.471
			c0,0-5.423,5.907-13.914,1.838"/>
		<path style="fill:none;stroke:#332B27;stroke-width:0.973;stroke-miterlimit:10;" d="M3888.386,1242.462l-8.044,11.733
			c-0.815,1.189-0.716,2.78,0.241,3.858l1.481,1.669l1.518,1.71"/>
		<path style="fill:none;stroke:#332B27;stroke-width:0.973;stroke-miterlimit:10;" d="M3902.994,1240.522
			c0,0-3.166-5.491-8.627-5.502"/>
		<path style="fill:none;stroke:#332B27;stroke-width:0.973;stroke-miterlimit:10;" d="M3873.84,1230.172
			c0,0,4.377-2.348,8.541,1.185"/>
		<polygon style="fill:#FFFFFF;" points="3873.97,1312.717 3900.419,1324.034 3886.521,1340.918 3870.696,1315.967 		"/>
		<polygon style="fill:#FFFFFF;" points="3926.664,1310.213 3900.419,1324.034 3912.936,1340.206 3929.005,1312.486 		"/>
		<polygon style="fill:#FDAE97;" points="3861.319,1988.69 3863.55,1956.665 3801.189,1956.665 3798.754,1988.69 		"/>
		<polygon style="fill:#EA9D85;" points="3800.086,1971.173 3863.55,1956.665 3801.189,1956.665 		"/>
		<polygon style="fill:#FDAE97;" points="3953.883,1988.69 3951.49,1956.613 4015.365,1956.665 4016.448,1988.69 		"/>
		<polygon style="fill:#EA9D85;" points="3952.825,1974.504 4015.365,1956.665 3951.49,1956.613 		"/>
		<path style="fill:#322A28;" d="M3936.203,1215.007c0,0,7.417-3.935,14.833,2.27c0,0-12.714-3.633-14.833,1.211
			C3934.084,1223.332,3936.203,1215.007,3936.203,1215.007z"/>
		
			<polyline style="fill:none;stroke:#FFFFFF;stroke-width:0.7916;stroke-linecap:round;stroke-linejoin:round;stroke-miterlimit:10;" points="
			3932.102,1318.95 3900.419,1369.912 3869.157,1322.24 		"/>
		<path style="fill:#322A28;" d="M3768.023,2015.628h92.085l0.158-3.747l1.131-24.819h-62.661c-7.757,0-14.934,4.555-20.422,9.304
			c-4.539,4.063-7.916,9.393-9.499,15.515C3768.445,2013.095,3768.181,2014.361,3768.023,2015.628z"/>
		<path style="fill:#FFF1F0;" d="M3768.023,2015.628h92.085l0.158-3.747h-91.452
			C3768.445,2013.095,3768.181,2014.361,3768.023,2015.628z"/>
		<g>
			
				<path style="fill:none;stroke:#FFF1F0;stroke-width:1.2047;stroke-linecap:round;stroke-linejoin:round;stroke-miterlimit:10;" d="
				M3796.85,1992.168c0,0,7.959-13.97,13.32-8.447C3815.53,1989.245,3796.85,1992.168,3796.85,1992.168"/>
			
				<path style="fill:none;stroke:#FFF1F0;stroke-width:1.2047;stroke-linecap:round;stroke-linejoin:round;stroke-miterlimit:10;" d="
				M3799.652,1994.95l-2.802-2.782c0,0-7.96-13.97-13.32-8.447c-5.36,5.523,13.32,8.447,13.32,8.447"/>
			
				<line style="fill:none;stroke:#FFF1F0;stroke-width:1.2047;stroke-linecap:round;stroke-linejoin:round;stroke-miterlimit:10;" x1="3794.711" y1="1994.95" x2="3796.85" y2="1992.168"/>
		</g>
		<path style="fill:#322A28;" d="M4046.701,2015.628h-92.085l-0.158-3.747l-1.131-24.819h62.661c7.757,0,14.934,4.555,20.422,9.304
			c4.539,4.063,7.916,9.393,9.499,15.515C4046.279,2013.095,4046.542,2014.361,4046.701,2015.628z"/>
		<path style="fill:#FFF1F0;" d="M4046.701,2015.628h-92.085l-0.158-3.747h91.452
			C4046.279,2013.095,4046.542,2014.361,4046.701,2015.628z"/>
		<g>
			
				<path style="fill:none;stroke:#FFF1F0;stroke-width:1.2047;stroke-linecap:round;stroke-linejoin:round;stroke-miterlimit:10;" d="
				M4017.874,1993.014c0,0-7.959-13.97-13.32-8.447C3999.194,1990.09,4017.874,1993.014,4017.874,1993.014"/>
			
				<path style="fill:none;stroke:#FFF1F0;stroke-width:1.2047;stroke-linecap:round;stroke-linejoin:round;stroke-miterlimit:10;" d="
				M4015.072,1995.796l2.802-2.782c0,0,7.96-13.97,13.32-8.447c5.36,5.523-13.32,8.447-13.32,8.447"/>
			
				<line style="fill:none;stroke:#FFF1F0;stroke-width:1.2047;stroke-linecap:round;stroke-linejoin:round;stroke-miterlimit:10;" x1="4020.012" y1="1995.796" x2="4017.874" y2="1993.014"/>
		</g>
		<path style="fill:none;stroke:#F9ECB8;stroke-width:2.7921;stroke-miterlimit:10;" d="M3838.967,1342.783
			c0,0,70.917-5.748,128.14,74.816c57.223,80.564,17.644,168.71,17.644,168.71s0.984,81.265-68.941,127.947
			c-69.926,46.682-131.239,34.21-174.59,17.858c0,0-92.21,6.236-136.078-59.269c-43.868-65.505-23.952-159.818-9.701-184.277
			c0,0-29.168-25.792,12.003-70.968C3648.615,1372.423,3716.851,1313.897,3838.967,1342.783z"/>
		<path style="fill:#FDAE97;" d="M3621.84,1452.761l-14.148-5.156c-1.848-0.674-2.809-2.737-2.135-4.585l0,0
			c0.674-1.848,2.737-2.809,4.585-2.136l14.148,5.156c1.848,0.673,2.809,2.737,2.135,4.585l0,0
			C3625.751,1452.474,3623.688,1453.434,3621.84,1452.761z"/>
		<polyline style="fill:none;stroke:#FFFFFF;stroke-width:1.7449;stroke-miterlimit:10;" points="3902.384,1681.293 
			3899.388,1656.758 3884.331,1646.37 3872.097,1596.528 		"/>
		
			<line style="fill:none;stroke:#FFFFFF;stroke-width:1.7449;stroke-miterlimit:10;" x1="3798.754" y1="1931.556" x2="3857.981" y2="1931.556"/>
		
			<line style="fill:none;stroke:#FFFFFF;stroke-width:1.7449;stroke-miterlimit:10;" x1="3957.221" y1="1931.556" x2="4016.448" y2="1931.556"/>
		<g>
			<path style="fill:#F74242;" d="M3767.74,1626.481l-26.521,105.633c-107.499-26.989-172.774-136.027-145.779-243.547
				l105.633,26.521C3688.727,1564.265,3718.584,1614.14,3767.74,1626.481z"/>
			<path style="fill:#FFFFFF;" d="M3838.967,1342.783l-26.521,105.633c-49.156-12.341-99.031,17.516-111.373,66.672l-105.633-26.521
				C3622.43,1381.068,3731.468,1315.794,3838.967,1342.783z"/>
			<path style="fill:#F74242;" d="M3984.751,1586.31l-105.613-26.516c12.341-49.156-17.516-99.031-66.692-111.378l26.521-105.633
				C3946.487,1369.778,4011.74,1478.811,3984.751,1586.31z"/>
			<path style="fill:#FFFFFF;" d="M3984.751,1586.31c-26.994,107.52-136.012,172.799-243.531,145.805l26.521-105.633
				c49.177,12.346,99.052-17.511,111.398-66.687L3984.751,1586.31z"/>
		</g>
		<path style="fill:#FDAE97;" d="M3617.947,1463.443l-14.148-5.156c-1.848-0.673-2.809-2.737-2.135-4.585l0,0
			c0.674-1.848,2.737-2.809,4.585-2.135l14.148,5.156c1.848,0.673,2.809,2.737,2.136,4.585v0
			C3621.858,1463.156,3619.795,1464.117,3617.947,1463.443z"/>
		<path style="fill:#FDAE97;" d="M3615.54,1470.046l-14.148-5.156c-1.848-0.674-2.809-2.737-2.135-4.585l0,0
			c0.674-1.848,2.737-2.809,4.585-2.136l14.148,5.156c1.848,0.674,2.809,2.737,2.136,4.585l0,0
			C3619.451,1469.759,3617.388,1470.72,3615.54,1470.046z"/>
		<path style="fill:#FDAE97;" d="M3613.293,1476.211l-14.148-5.156c-1.848-0.674-2.809-2.737-2.135-4.585l0,0
			c0.673-1.848,2.737-2.809,4.585-2.136l14.148,5.156c1.848,0.674,2.809,2.737,2.135,4.585l0,0
			C3617.204,1475.924,3615.141,1476.885,3613.293,1476.211z"/>
		<path style="fill:#FDAE97;" d="M3610.991,1482.527l-14.148-5.156c-1.848-0.673-2.809-2.737-2.135-4.585l0,0
			c0.673-1.848,2.737-2.809,4.585-2.135l14.148,5.156c1.848,0.674,2.809,2.737,2.135,4.585l0,0
			C3614.903,1482.24,3612.839,1483.201,3610.991,1482.527z"/>
		<path style="fill:#FDAE97;" d="M3889.894,1616.326c1.601,2.037,16.512-2.891,25.727-9.708c7.816-5.767,24.403-21.005,29.26-25.53
			l-17.691-25.339c-3.455,1.807-7.329,3.674-10.853,4.862c-8.647,2.991-31.228,13.8-29.63,17.063
			c1.556,3.245,18.546-1.054,18.092,0.856c-0.455,1.91-12.178,7.958-17.365,10.127c-5.206,2.21-17.094,5.089-17.872,8.28
			c-0.796,3.233,3.491,5.529,3.491,5.529s-4.677,0.577-3.782,3.431c0.895,2.854,8.396,3.775,8.396,3.775s-2.613,0.02-0.851,2.914
			c1.802,2.912,13.409,0.449,13.409,0.449S3888.234,1614.312,3889.894,1616.326z"/>
		<path style="fill:#E7888B;" d="M3917.78,1549.781l22.406-20.031l20.304-18.108l54.131-48.372
			c11.712-9.149,29.781-5.814,40.192,7.443c10.377,13.269,9.29,31.639-2.411,40.822l-61.294,42.336l-22.257,15.409l-23.015,15.904
			L3917.78,1549.781z"/>
	</g>
	<g>
		<g>
			<g>
				<path style="fill:#0775EF;" d="M3603.744,476.353c-6.64,19.883-27.178,31.313-47.19,26.998
					c-1.954,19.413-0.745,39.227,3.949,58.756c19.3-7.073,41.201,1.261,50.602,20.176c2.488,4.914,3.825,10.169,4.222,15.356
					c0.978,14.505-5.943,28.925-18.6,37.14c8.242,10.025,17.455,18.95,27.413,26.814c4.525,3.534,9.226,6.875,14.041,9.941
					c0.929,0.651,1.939,1.242,2.877,1.823c8.721-18.62,30.137-28.087,50.021-21.447c10.038,3.408,17.882,10.222,22.609,18.769
					c4.749,8.403,6.464,18.476,4.388,28.421c19.342,1.944,39.156,0.735,58.614-3.971c-6.93-19.278,1.464-41.097,20.237-50.52
					c18.832-9.341,41.299-2.827,52.495,14.38c15.454-12.703,28.415-27.832,38.516-44.413c-18.549-8.711-28.026-30.055-21.315-49.928
					c6.64-19.884,27.178-31.313,47.191-26.999c1.942-19.342,0.744-39.227-3.961-58.685c-17.215,6.36-36.661,0.225-47.237-14.764
					c-1.229-1.576-2.344-3.427-3.293-5.401c-9.402-18.916-2.888-41.382,14.379-52.496c-7.744-9.437-16.354-17.979-25.699-25.531
					c-4.526-3.535-9.144-6.937-13.949-10.073c-1.601-1.046-3.203-2.091-4.815-3.065c-8.65,18.63-30.066,28.097-49.94,21.386
					c-3.629-1.203-6.969-2.875-9.967-4.862c-13.565-9.21-20.523-25.855-17.042-42.256c-19.342-1.944-39.156-0.734-58.613,3.971
					c6.93,19.278-1.465,41.097-20.237,50.52c-18.833,9.34-41.299,2.827-52.496-14.38c-15.453,12.704-28.414,27.832-38.586,44.403
					C3600.989,435.064,3610.384,456.469,3603.744,476.353z M3696.459,442.764c11.956-5.975,24.629-8.912,37.182-9.084
					c16.232-0.28,32.217,4.018,46.064,12.318c4.92,2.861,9.599,6.346,13.845,10.278c7.811,7.03,14.434,15.64,19.387,25.612
					c6.198,12.429,9.121,25.686,9.085,38.647c-0.009,31.865-17.715,62.545-48.186,77.689c-3.639,1.799-7.389,3.362-11.157,4.556
					c-23.774,8.088-49.195,5.161-70.068-6.608c-5.002-2.8-9.703-6.141-14.114-9.952c-8.506-7.281-15.72-16.345-21.007-27.026
					c-2.083-4.194-3.786-8.478-5.18-12.862C3639.762,506.359,3657.754,462.023,3696.459,442.764z"/>
			</g>
		</g>
		<polygon style="fill:#0775EF;" points="3829.24,367.632 3853.691,356.905 3834.854,399.253 		"/>
		<polygon style="fill:#0775EF;" points="3718.129,335.143 3693.678,345.871 3717.836,368.076 3734.806,343.714 		"/>
		<polygon style="fill:#0775EF;" points="3581.005,492.624 3556.554,503.351 3567.901,520.37 3589.606,511.703 		"/>
		<polygon style="fill:#0775EF;" points="3645.396,371.283 3620.945,382.011 3622.109,403.359 3633.623,384.192 		"/>
		<polygon style="fill:#0775EF;" points="3665.509,662.628 3641.057,673.356 3633.862,656.096 3649.375,645.66 		"/>
		<polygon style="fill:#0775EF;" points="3938.266,526.92 3913.815,537.648 3899.352,515.453 3914.357,504.309 		"/>
		<polygon style="fill:#0775EF;" points="3801.142,684.4 3776.69,695.128 3750.071,681.591 3775.014,671.39 		"/>
		<polygon style="fill:#0775EF;" points="3873.875,648.26 3849.423,658.988 3854.811,625.522 3870.89,634.421 		"/>
		<g>
			<g>
				<path style="fill:#088CFC;" d="M3628.195,465.625c-6.64,19.883-27.178,31.313-47.19,26.998
					c-1.954,19.413-0.745,39.227,3.949,58.756c19.3-7.073,41.201,1.261,50.602,20.176c2.488,4.914,3.825,10.169,4.222,15.356
					c0.978,14.505-5.943,28.925-18.6,37.139c8.242,10.025,17.455,18.95,27.412,26.814c4.525,3.534,9.226,6.876,14.041,9.941
					c0.929,0.651,1.939,1.242,2.877,1.823c8.721-18.62,30.137-28.087,50.021-21.447c10.038,3.408,17.882,10.222,22.609,18.769
					c4.75,8.403,6.464,18.476,4.389,28.421c19.342,1.944,39.156,0.735,58.614-3.971c-6.931-19.278,1.464-41.097,20.237-50.52
					c18.833-9.341,41.3-2.827,52.496,14.38c15.454-12.703,28.415-27.832,38.515-44.413c-18.549-8.711-28.026-30.055-21.314-49.928
					c6.64-19.884,27.178-31.313,47.191-26.999c1.943-19.342,0.745-39.227-3.961-58.685c-17.215,6.36-36.661,0.225-47.237-14.764
					c-1.229-1.576-2.344-3.427-3.293-5.401c-9.402-18.916-2.888-41.382,14.379-52.496c-7.744-9.437-16.354-17.979-25.699-25.531
					c-4.526-3.535-9.144-6.936-13.949-10.073c-1.602-1.046-3.203-2.091-4.815-3.065c-8.65,18.63-30.066,28.097-49.94,21.386
					c-3.629-1.203-6.969-2.875-9.967-4.862c-13.565-9.21-20.523-25.855-17.042-42.256c-19.342-1.944-39.156-0.734-58.613,3.971
					c6.93,19.278-1.465,41.097-20.237,50.52c-18.833,9.34-41.3,2.827-52.496-14.38c-15.453,12.704-28.414,27.832-38.586,44.403
					C3625.44,424.336,3634.835,445.741,3628.195,465.625z M3720.911,432.037c11.956-5.975,24.629-8.912,37.182-9.084
					c16.232-0.28,32.217,4.018,46.064,12.318c4.92,2.861,9.599,6.346,13.846,10.278c7.811,7.03,14.434,15.64,19.387,25.612
					c6.198,12.429,9.121,25.686,9.085,38.647c-0.009,31.865-17.715,62.545-48.186,77.689c-3.639,1.799-7.389,3.362-11.157,4.556
					c-23.774,8.088-49.195,5.161-70.068-6.608c-5.002-2.8-9.703-6.141-14.115-9.952c-8.506-7.281-15.72-16.345-21.006-27.026
					c-2.083-4.194-3.786-8.478-5.18-12.862C3664.213,495.632,3682.206,451.296,3720.911,432.037z"/>
			</g>
		</g>
	</g>
	<g>
		<g>
			<g>
				<path style="fill:#0775EF;" d="M3381.037,697.442c-3.196,14.044-16.467,23.247-30.441,21.649
					c-0.024,13.406,2.142,26.871,6.671,39.907c12.718-6.141,28.256-1.922,35.962,10.376c2.033,3.192,3.302,6.695,3.924,10.214
					c1.649,9.851-2.109,20.179-10.208,26.651c6.313,6.297,13.215,11.777,20.555,16.481c3.333,2.111,6.773,4.078,10.272,5.848
					c0.679,0.383,1.409,0.718,2.091,1.052c4.705-13.321,18.708-21.241,32.752-18.044c7.094,1.652,12.917,5.781,16.727,11.305
					c3.815,5.424,5.668,12.196,4.921,19.136c13.356,0.022,26.822-2.144,39.809-6.676c-6.042-12.713-1.777-28.198,10.423-35.91
					c12.245-7.659,28.047-4.724,36.865,6.284c9.708-9.73,17.548-20.95,23.333-32.97c-13.271-4.702-21.194-18.656-17.948-32.698
					c3.196-14.044,16.467-23.247,30.442-21.649c0.021-13.356-2.142-26.871-6.674-39.857c-11.341,5.512-25.052,2.631-33.296-6.903
					c-0.947-0.994-1.834-2.185-2.617-3.47c-7.707-12.298-4.771-28.1,6.284-36.865c-5.933-5.929-12.397-11.188-19.297-15.72
					c-3.333-2.111-6.721-4.125-10.218-5.945c-1.166-0.607-2.332-1.214-3.5-1.77c-4.655,13.323-18.659,21.243-32.701,17.997
					c-2.563-0.577-4.959-1.495-7.144-2.651c-9.898-5.38-15.78-16.291-14.508-27.74c-13.356-0.022-26.822,2.144-39.808,6.676
					c6.041,12.713,1.776,28.199-10.423,35.91c-12.246,7.659-28.047,4.724-36.866-6.284c-9.708,9.73-17.547,20.95-23.382,32.968
					C3376.363,669.397,3384.233,683.398,3381.037,697.442z M3442.16,668.211c7.771-4.893,16.238-7.758,24.809-8.724
					c11.079-1.289,22.299,0.57,32.328,5.309c3.557,1.624,6.992,3.69,10.161,6.092c5.816,4.279,10.926,9.718,14.987,16.202
					c5.078,8.079,7.972,16.947,8.823,25.811c2.147,21.788-7.885,43.962-27.697,56.376c-2.366,1.476-4.825,2.798-7.321,3.869
					c-15.709,7.137-33.288,6.854-48.355,0.217c-3.61-1.577-7.049-3.543-10.323-5.85c-6.308-4.403-11.853-10.114-16.189-17.06
					c-1.708-2.727-3.161-5.541-4.411-8.445C3407.691,715.525,3416.998,683.995,3442.16,668.211z"/>
			</g>
		</g>
		<polygon style="fill:#0775EF;" points="3527.87,607.866 3543.864,598.879 3533.846,629.107 		"/>
		<polygon style="fill:#0775EF;" points="3449.704,593.161 3433.711,602.148 3451.729,615.698 3461.686,597.894 		"/>
		<polygon style="fill:#0775EF;" points="3366.589,710.104 3350.595,719.091 3359.504,729.961 3373.759,722.568 		"/>
		<polygon style="fill:#0775EF;" points="3402.416,622.787 3386.422,631.774 3388.661,646.292 3395.238,632.409 		"/>
		<polygon style="fill:#0775EF;" points="3435.856,820.633 3419.863,829.62 3413.777,818.305 3423.678,810.121 		"/>
		<polygon style="fill:#0775EF;" points="3613.181,709.41 3597.188,718.398 3585.799,704.2 3595.306,695.566 		"/>
		<polygon style="fill:#0775EF;" points="3530.066,826.353 3514.073,835.341 3494.957,827.883 3511.322,819.223 		"/>
		<polygon style="fill:#0775EF;" points="3577.354,796.727 3561.36,805.714 3562.783,782.469 3574.378,787.466 		"/>
		<g>
			<g>
				<path style="fill:#088CFC;" d="M3397.03,688.455c-3.196,14.044-16.467,23.247-30.441,21.649
					c-0.024,13.406,2.142,26.871,6.671,39.907c12.718-6.141,28.256-1.922,35.962,10.376c2.033,3.192,3.302,6.695,3.924,10.214
					c1.649,9.851-2.109,20.179-10.208,26.651c6.313,6.297,13.215,11.777,20.555,16.481c3.333,2.111,6.773,4.078,10.272,5.848
					c0.679,0.383,1.409,0.718,2.091,1.052c4.705-13.321,18.708-21.241,32.752-18.044c7.094,1.652,12.917,5.781,16.727,11.305
					c3.815,5.424,5.668,12.196,4.921,19.136c13.356,0.022,26.822-2.144,39.809-6.676c-6.042-12.713-1.777-28.198,10.423-35.91
					c12.245-7.659,28.047-4.724,36.865,6.284c9.708-9.73,17.548-20.95,23.333-32.97c-13.271-4.702-21.194-18.656-17.948-32.698
					c3.196-14.044,16.467-23.247,30.442-21.649c0.021-13.356-2.142-26.871-6.674-39.857c-11.341,5.512-25.052,2.632-33.296-6.903
					c-0.947-0.994-1.834-2.185-2.617-3.47c-7.707-12.298-4.771-28.1,6.284-36.865c-5.933-5.929-12.397-11.188-19.297-15.72
					c-3.333-2.111-6.721-4.125-10.218-5.945c-1.166-0.607-2.331-1.214-3.5-1.77c-4.656,13.323-18.659,21.243-32.701,17.997
					c-2.563-0.577-4.959-1.495-7.144-2.651c-9.898-5.38-15.78-16.291-14.508-27.74c-13.356-0.022-26.822,2.144-39.808,6.676
					c6.041,12.713,1.776,28.199-10.423,35.91c-12.246,7.659-28.047,4.724-36.866-6.284c-9.708,9.73-17.547,20.95-23.383,32.968
					C3392.356,660.41,3400.226,674.411,3397.03,688.455z M3458.154,659.223c7.771-4.893,16.238-7.758,24.809-8.724
					c11.08-1.289,22.3,0.57,32.329,5.309c3.557,1.624,6.992,3.69,10.161,6.092c5.816,4.279,10.926,9.718,14.986,16.202
					c5.078,8.079,7.972,16.947,8.823,25.811c2.147,21.788-7.885,43.962-27.697,56.376c-2.366,1.476-4.825,2.798-7.321,3.869
					c-15.709,7.137-33.288,6.854-48.355,0.217c-3.61-1.577-7.049-3.543-10.323-5.85c-6.308-4.403-11.853-10.114-16.189-17.06
					c-1.708-2.727-3.161-5.541-4.411-8.445C3423.685,706.537,3432.991,675.007,3458.154,659.223z"/>
			</g>
		</g>
	</g>
	<g>
		<rect x="296.391" y="584.327" style="fill:#E5F0F8;" width="79.786" height="79.786"/>
		<rect x="296.391" y="680.07" style="fill:#E5F0F8;" width="79.786" height="79.786"/>
		<rect x="296.391" y="775.813" style="fill:#E5F0F8;" width="79.786" height="79.786"/>
		<polyline style="fill:none;stroke:#FFFFFF;stroke-width:5.063;stroke-miterlimit:10;" points="301.023,628.595 327.275,651.759 
			368.97,599.255 		"/>
		<polyline style="fill:none;stroke:#FFFFFF;stroke-width:5.063;stroke-miterlimit:10;" points="301.023,723.823 327.275,746.987 
			368.97,694.483 		"/>
		
			<line style="fill:none;stroke:#FFFFFF;stroke-width:5.063;stroke-miterlimit:10;" x1="303.082" y1="783.534" x2="365.881" y2="846.333"/>
		
			<line style="fill:none;stroke:#FFFFFF;stroke-width:5.063;stroke-miterlimit:10;" x1="365.881" y1="783.534" x2="303.082" y2="846.333"/>
		<rect x="404.487" y="584.327" style="fill:#E5F0F8;" width="295.404" height="14.928"/>
		<rect x="404.487" y="610.579" style="fill:#E5F0F8;" width="295.404" height="14.928"/>
		<rect x="404.487" y="636.831" style="fill:#E5F0F8;" width="164.385" height="14.928"/>
		<rect x="404.487" y="680.07" style="fill:#E5F0F8;" width="295.404" height="14.928"/>
		<rect x="404.487" y="706.322" style="fill:#E5F0F8;" width="295.404" height="14.928"/>
		<rect x="404.487" y="732.574" style="fill:#E5F0F8;" width="164.385" height="14.928"/>
		<rect x="404.487" y="775.813" style="fill:#E5F0F8;" width="295.404" height="14.928"/>
		<rect x="404.487" y="802.065" style="fill:#E5F0F8;" width="295.404" height="14.928"/>
		<rect x="404.487" y="828.317" style="fill:#E5F0F8;" width="164.385" height="14.928"/>
	</g>
	<path style="fill:#E5F0F8;" d="M3906.802,1018.984c-4.659-6.081-20.687-19.772-30.831-18.555
		c-8.817,1.057-14.566,15.315-23.45,15.684c-5.901,0.245-18.113-5.35-26.945-16.93c0,0-18.919-20.351-17.666-30.221
		c1.252-9.87,17.469-11.455,17.998-24.88c0.283-7.181-10.655-25.98-19.581-32.212c-3.282-2.292-7.659-2.279-10.91,0.058
		c-8.219,5.909-25.128,21.154-23.076,45.47c2.699,31.977,30.891,58.094,30.891,58.094s27.802,31.328,52.602,36.273
		c27.056,5.395,42.162-5.817,49.72-15.109C3913.112,1027.364,3911.461,1025.064,3906.802,1018.984z"/>
	<g>
		<g>
			<g>
				<path style="fill:#BBDBF3;" d="M3376.709,259.634l26.204-26.02c0.922-0.861,1.814-1.8,2.676-2.814
					c0.861-1.015,1.63-2.076,2.306-3.183c0.677-1.108,1.215-2.275,1.615-3.506c0.399-1.23,0.599-2.522,0.599-3.875
					c0-1.599-0.292-3.045-0.875-4.337c-0.586-1.291-1.384-2.383-2.4-3.275c-1.014-0.891-2.214-1.583-3.598-2.076
					c-1.384-0.492-2.845-0.738-4.383-0.738c-3.198,0-5.845,0.892-7.935,2.676c-2.092,1.785-3.414,4.244-3.967,7.382l-9.597-0.831
					c0.43-2.89,1.276-5.397,2.537-7.52c1.26-2.122,2.828-3.89,4.706-5.305c1.875-1.414,4.028-2.46,6.458-3.137
					c2.429-0.676,5.059-1.015,7.89-1.015c2.828,0,5.49,0.385,7.98,1.153c2.492,0.77,4.674,1.907,6.552,3.414
					c1.875,1.508,3.352,3.383,4.429,5.628c1.076,2.246,1.615,4.876,1.615,7.889c0,2.154-0.323,4.168-0.969,6.044
					c-0.646,1.877-1.492,3.645-2.537,5.306c-1.046,1.66-2.246,3.229-3.598,4.705c-1.355,1.476-2.768,2.922-4.244,4.337l-21.5,20.761
					h32.849v7.751h-42.814V259.634z"/>
			</g>
			<g>
				<path style="fill:#BBDBF3;" d="M3454.77,254.652h-27.866v-9.042l26.02-41.891h10.704v43.182h9.227v7.751h-9.227v14.394h-8.858
					V254.652z M3454.77,214.238h-0.184l-19.931,32.663h20.115V214.238z"/>
			</g>
			<g>
				<path style="fill:#BBDBF3;" d="M3481.527,273.106l-6.458-2.399l29.526-71.048l6.367,2.399L3481.527,273.106z"/>
			</g>
			<g>
				<path style="fill:#BBDBF3;" d="M3546.485,211.469h-31.649v-7.751h41.061v7.566l-26.02,57.761h-9.965L3546.485,211.469z"/>
			</g>
		</g>
		<g>
			<path style="fill:#BBDBF3;" d="M3413.689,344.13c-41.492-20.298-67.268-61.585-67.268-107.748
				c0-66.104,53.78-119.883,119.883-119.883s119.882,53.779,119.882,119.883c0,38.836-18.949,75.437-50.688,97.908l-3.948-5.578
				c29.932-21.192,47.803-55.708,47.803-92.331c0-62.335-50.714-113.049-113.049-113.049s-113.049,50.714-113.049,113.049
				c0,43.532,24.308,82.467,63.438,101.61L3413.689,344.13z"/>
		</g>
		<g>
			<polygon style="fill:#BBDBF3;" points="3521.939,339.324 3554.954,336.056 3535.616,309.098 			"/>
		</g>
	</g>
	<g>
		<g>
			<polygon style="fill:#F2BB16;" points="1719.397,1806.279 1594.132,1889.546 1468.891,1806.279 			"/>
			<polygon style="fill:#F2BB16;" points="1719.397,1806.279 1719.397,1972.813 1468.891,1972.813 1468.891,1806.279 
				1594.132,1889.546 			"/>
			<polygon style="fill:#F2BB16;" points="1468.891,1972.813 1594.132,1889.546 1719.397,1972.813 			"/>
		</g>
		<g>
			<polygon style="fill:#F9ECB8;" points="1728.97,1806.279 1603.706,1889.546 1478.464,1806.279 			"/>
			<polygon style="fill:#F9E181;" points="1728.97,1806.279 1728.97,1972.813 1478.464,1972.813 1478.464,1806.279 
				1603.706,1889.546 			"/>
			<polygon style="fill:#F9ECB8;" points="1478.464,1972.813 1603.706,1889.546 1728.97,1972.813 			"/>
		</g>
		<path style="fill:#40A87B;" d="M1748.784,1806.274c0,5.184-1.983,9.914-5.267,13.467c-3.615,3.904-8.778,6.362-14.541,6.362
			c-10.947,0-19.829-8.882-19.829-19.829c0-7.704,4.4-14.396,10.844-17.66c2.706-1.384,5.742-2.148,8.985-2.148
			C1739.923,1786.466,1748.784,1795.327,1748.784,1806.274z"/>
		<path style="fill:#6ADB6A;" d="M1748.784,1806.274c0,5.184-1.983,9.914-5.267,13.467c-2.706,1.384-5.763,2.169-9.006,2.169
			c-10.947,0-19.829-8.861-19.829-19.808c0-5.205,2.024-9.956,5.308-13.488c2.706-1.384,5.742-2.148,8.985-2.148
			C1739.923,1786.466,1748.784,1795.327,1748.784,1806.274z"/>
	</g>
	<g>
		
			<ellipse transform="matrix(0.7071 -0.7071 0.7071 0.7071 59.5004 1342.1559)" style="fill:#40A87B;" cx="1649.876" cy="599.255" rx="101.104" ry="101.104"/>
		
			<ellipse transform="matrix(0.7071 -0.7071 0.7071 0.7071 63.4694 1351.7379)" style="fill:#6ADB6A;" cx="1663.427" cy="599.255" rx="101.104" ry="101.104"/>
		<path style="fill:#FFFFFF;" d="M1716.646,623.359c-3.534-4.613-15.694-15-23.39-14.077c-6.689,0.802-11.05,11.619-17.79,11.898
			c-4.477,0.186-13.741-4.059-20.442-12.844c0,0-14.353-15.439-13.402-22.927c0.95-7.488,13.252-8.69,13.654-18.875
			c0.215-5.448-8.083-19.71-14.855-24.438c-2.49-1.739-5.811-1.729-8.277,0.044c-6.236,4.483-19.063,16.048-17.506,34.496
			c2.047,24.26,23.435,44.073,23.435,44.073s21.092,23.767,39.906,27.518c20.526,4.093,31.986-4.413,37.72-11.462
			C1721.433,629.717,1720.181,627.972,1716.646,623.359z"/>
	</g>
</g>
</svg>
